<!-- Generator: Adobe Illustrator 25.0.0, SVG Export Plug-In  -->
<svg version="1.1" xmlns="http://www.w3.org/2000/svg" xmlns:xlink="http://www.w3.org/1999/xlink" x="0px" y="0px"
	 width="186.35px" height="186.35px" viewBox="0 0 186.35 186.35"
	 style="overflow:visible;enable-background:new 0 0 186.35 186.35;" xml:space="preserve">
<style type="text/css">
	.st0{fill:#EEEEEE;stroke:#EEEEEE;stroke-miterlimit:10;}
	.st1{display:none;}
	.st2{display:inline;}
</style>
<defs>
</defs>
<circle class="st0" cx="93.17" cy="93.17" r="92.67"/>
<g>
	<g>
		<g>
			<path d="M89.22,50.96c0,0-3.67-3.04-4.2-5.4c-0.53-2.36-0.58-9.68-3.06-13.73s-7.82-6.83-8.58-6.31c0,0,4.97,4.88,4.8,12.75
				s-4,10.01-4,10.01s0.68-5.87-0.54-5.81c-1.22,0.06-3.35-5.45-2.9-6.62c0,0,0.04-4.89,1.49-5.96c0,0-5.04,1.44-4.88,5.76
				s2.02,8.35,0.69,11.79c-1.34,3.44-4.48,6.88-6.1,6.72c0,0,2.93-3.58,2.14-7.81c-0.79-4.23-1.88-6.25-3.12-6.6
				c0,0,2.91,6.27-1.41,8.87c0,0-2.09-0.47-2.78-8.22c0,0-1.51-6.62-4.63-7.88c0,0,3.43,5.72,1.74,8.79c0,0-5.13,5.45-5.26,8.33
				c0,0-1.49,0.39-1.53-3.33c-0.04-3.71,2.79-4.59,2.79-4.59s-5.93-2.06-7.06,6.26c0,0-0.5,2.21,1.34,6.61c0,0,0.72,7.08-3.13,7.24
				c0,0-4.17,1.22-4.63-6.14c-0.47-7.35,1.77-9.19,1.77-9.19s-4.35,0.79-4.97,3.47c0,0-4.5-1.02-7.86,4.21c0,0,8.75-1.89,7.67,5.96
				c0,0-2.72-2.6-6.22,0.08c-3.5,2.69-3.46,6.8-2.74,8.51c0,0,0.92-5.45,4.75-4.61c0,0,4.22,0.54,0.22,9.19c0,0-0.48-2.95-5.92-2.36
				c0,0-3.73,3.36-3.59,5.99c0,0,1.61-2.36,3.9-1.85s2.63,4.03,2.63,4.03s-2.46,5.54-1.44,8.3c0,0-2.59-5.01-5.03-4.43
				c0,0,1.49,1.29,1.23,2.87c-0.25,1.57-0.3,10.27,2.43,13s4.31,4.07,6.06,3.41c0,0-0.87,3.33-3.96,3.82s-3.09,0.92-6.51-0.62
				c0,0-1.5,3.78,1.72,5.43c3.22,1.65,9.36,1.91,11.65-2.95c0,0,1.52,5.56-2.85,10.46s-10.03,1.04-9.95-0.65
				c0,0,0.33,7.73,7.24,8.64c0,0,4.88,1.38,8.87-6.93c0,0,0.3,4.29,3.87,5.57c0,0-1.79-4.93,0.81-8.61c0,0,1.42,2.75,3.65,2.04
				c2.23-0.71,2.57-1.61,2.57-1.61s-4.3-0.27-3.04-6.92c0,0,3.99,7.5,9.6,6.17c0,0,2.52,0.07,2.64-4.33c0,0-2.1,3.02-4.88-1.22
				c-2.78-4.24-1.3-8.7-1.3-8.7s0.07-2.15-0.35-2.69c-0.41-0.54,7.81,2.96,6.7,9.49c-1.12,6.53,5.74,9.49,5.74,9.49
				s-3.57-5.32-2.28-8.36c1.29-3.04,3.44-5.64,3.44-5.64s0.02,7.17,3.71,9.39c3.47,2.09,5.64,1.7,6.88,0.52
				c1.12-1.07,2.92-5.05,1.98-7.56c-0.97-2.61-3.42-4.18-4.6-2.52c-1.18,1.65,0.18,2.93,0.18,2.93s-0.05-2.09,1.11-0.79
				c1.16,1.3,0.56,3.31,0.13,3.81c-0.43,0.5-2.44,2.79-4.35-3.65c-1.91-6.44,2.7-11.34,5.08-10.83c2.42,0.51,4.8,0.55,5.76,7.75
				c0.96,7.19-1.5,8.36-2,9.32c0,0,4.4,0.03,7.15-5.89c0,0,0.43,8.96,5.85,7.64c0,0-4.03-6.62,3.81-19.28c0,0,6.44,7.76,6.87,12.52
				c0.38,4.19-2.53,6.67-2.53,6.67c5.44,1.18,5.69-7.78,5.69-7.78c2.88,5.85,7.27,5.71,7.27,5.71c-0.52-0.95-3-2.05-2.19-9.26
				c0.81-7.21,3.19-7.32,5.6-7.89c2.37-0.57,7.08,4.21,5.31,10.7c-1.78,6.49-3.66,4.29-4.27,3.76c-0.97-0.84-2.32-1.9-2.11-4.94
				c0.03-0.39-1.13,2.6-0.97,4.54c0.22,2.65,1.67,4.3,1.97,4.58c1.26,1.15,3.44,1.48,6.87-0.69c3.64-2.31,3.51-9.48,3.51-9.48
				s2.21,2.55,3.56,5.56c1.35,3-2.11,8.41-2.11,8.41s6.79-3.13,5.54-9.63c-1.25-6.5,6.9-10.21,6.5-9.66c-0.4,0.55-0.29,2.7-0.29,2.7
				s1.57,4.42-1.12,8.73c-2.69,4.31-4.85,1.35-4.85,1.35c0.21,4.39,2.73,4.26,2.73,4.26c5.63,1.19,9.47-6.41,9.47-6.41
				c1.4,6.62-2.9,7-2.9,7s0.36,0.89,2.61,1.54s3.61-2.13,3.61-2.13c2.68,3.61,0.99,8.59,0.99,8.59c3.55-1.37,3.75-5.67,3.75-5.67
				c4.16,8.21,9.01,6.7,9.01,6.7c6.89-1.08,7.06-8.82,7.06-8.82c0.11,1.68-5.45,5.69-9.93,0.9s-3.07-10.38-3.07-10.38
				c2.39,4.8,8.52,4.39,11.71,2.66c3.19-1.73,1.61-5.47,1.61-5.47c-3.38,1.62-3.39,1.19-6.49,0.78s-4.04-3.72-4.04-3.72
				c1.76,0.62,3.31-0.76,5.98-3.56c2.67-2.8,2.44-11.49,2.16-13.06c-0.29-1.57,1.17-2.9,1.17-2.9c-2.45-0.52-4.94,4.56-4.94,4.56
				c0.96-2.78-1.61-8.26-1.61-8.26s0.27-3.53,2.55-4.1s3.94,1.75,3.94,1.75c0.09-2.64-3.71-5.9-3.71-5.9
				c-5.45-0.45-5.87,2.51-5.87,2.51c-4.18-8.55,0.03-9.2,0.03-9.2c3.81-0.93,4.84,4.49,4.84,4.49c0.68-1.73,0.64-5.84-2.91-8.44
				s-6.22,0.07-6.22,0.07c-1.24-7.83,7.55-6.16,7.55-6.16c-3.47-5.15-7.95-4.01-7.95-4.01c-0.68-2.67-5.04-3.35-5.04-3.35
				s2.27,1.77,1.96,9.14c-0.32,7.36-4.51,6.25-4.51,6.25c-3.85-0.06-3.28-7.16-3.28-7.16c1.75-4.45,1.21-6.65,1.21-6.65
				c-1.3-8.29-7.19-6.08-7.19-6.08s2.84,0.81,2.88,4.52c0.04,3.71-1.46,3.36-1.46,3.36c-0.2-2.87-5.43-8.2-5.43-8.2
				c-1.75-3.02,1.56-8.83,1.56-8.83c-3.1,1.34-4.47,8-4.47,8c-0.53,7.77-2.61,8.29-2.61,8.29c-4.37-2.49-1.59-8.83-1.59-8.83
				c-1.23,0.38-2.28,2.43-2.98,6.68s2.3,7.75,2.3,7.75c-1.62,0.2-4.83-3.16-6.24-6.56c-1.41-3.4,0.37-7.48,0.45-11.81
				c0.07-4.32-5-5.64-5-5.64c1.47,1.03,1.61,5.92,1.61,5.92c0.47,1.16-1.54,6.72-2.76,6.69c-1.22-0.03-0.42,5.82-0.42,5.82
				s-3.87-2.04-4.21-9.9c-0.33-7.86,4.53-12.86,4.53-12.86c-0.77-0.5-6.05,2.41-8.45,6.52c-2.4,4.12-0.94,11.3-1.42,13.68
				c0,0-0.28,3.6-1.87,4.97"/>
			<g>
				<path d="M88.16,58c-0.75-2.08-0.15-4.4,0.76-6.41c0.92-2.01,2.15-3.89,2.75-6.01c1.03-3.64-0.06-7.8-2.74-10.48
					c3.15,1.49,6.4,3.13,8.48,5.92c2.46,3.3,2.88,7.65,2.98,11.77c0.02,0.69,0.03,1.39,0.24,2.04c0.52,1.62,2.16,2.63,3.81,3.06"/>
			</g>
		</g>
		<g class="st1">
			<g class="st2">
				<path d="M142.78,74.67c0.33-1.24,2.31-1.19,3.1-0.18c0.8,1.01,0.78,2.41,0.85,3.69c0.29,5.19,2.8,10.39,7.19,13.18
					c-3.2,2.4-8.17,2.04-10.99-0.8c-0.74-0.74-1.33-1.62-1.95-2.46c-1.13-1.55-2.4-3.05-4.07-4s-3.81-1.24-5.5-0.33"/>
			</g>
			<g class="st2">
				<path d="M117.18,67.55c-0.78-0.01-1.56,0.27-2.18,0.75c-1.32,1.04-1.77,2.86-1.74,4.54c0.03,1.68,0.45,3.33,0.49,5.01
					c0.1,4.33-2.61,8.59-6.56,10.34c2.29-0.23,4.37-1.37,6.38-2.5c3.03-1.69,6.32-3.7,7.32-7.03c0.27-0.9,0.35-1.85,0.64-2.75
					c0.6-1.88,2.15-3.44,4.03-4.04"/>
			</g>
			<g class="st2">
				<path d="M64.5,72.97c-0.65,1.46-2.19,2.33-3.02,3.7c-1.86,3.09,0.55,7.17-0.48,10.63c-0.3,1-0.87,1.89-1.46,2.75
					c-0.84,1.25-1.74,2.48-2.9,3.43s-2.66,1.59-4.15,1.45c2.77-1.96,3.26-5.89,2.88-9.26c-0.38-3.37-1.38-6.8-0.63-10.11
					c0.4-1.75,1.26-3.35,2.2-4.88"/>
			</g>
			<g class="st2">
				<path d="M44.2,77.08c-0.71-0.03-1.3,0.59-1.52,1.26c-0.22,0.67-0.15,1.4-0.13,2.1c0.06,3.17-1.02,6.36-3,8.84
					c-1.81,2.26-4.45,4.18-4.8,7.05c-0.19,1.59,0.43,3.25,1.62,4.32c0.11-2.17,1.22-4.27,2.95-5.59c1.47-1.12,3.29-1.66,4.97-2.43
					c1.68-0.77,3.36-1.91,3.96-3.66c0.54-1.55,0.14-3.25,0.05-4.89c-0.1-1.88,0.24-3.79,0.98-5.52"/>
			</g>
			<g class="st2">
				<path d="M82.1,71.78c-0.91,0.63-1.61,1.55-1.98,2.59c-0.45,1.28-0.4,2.68-0.63,4.03c-0.59,3.38-3.15,6.33-6.4,7.39
					c4.03,0.9,8.36,0.38,12.07-1.45c1.85-0.92,3.61-2.22,4.52-4.07c0.92-1.86,0.93-4.11,2.02-5.88c1.08-1.74,3.22-2.76,5.26-2.5"/>
			</g>
		</g>
	</g>
	<g>
		<path d="M148.44,123.61c0,0,0.14-0.43,0.28-1.12c-0.3-2.11-0.5-4.35-0.64-6.45c-0.18-0.35-0.38-0.69-0.63-1.02
			c0,0-1.36,2.78-3.61,2.13c-2.25-0.66-2.61-1.54-2.61-1.54s4.29-0.38,2.9-7c0,0-3.84,7.6-9.47,6.41c0,0-2.52,0.14-2.73-4.26
			c0,0,2.16,2.96,4.85-1.35c2.69-4.31,1.12-8.73,1.12-8.73s-0.11-2.15,0.29-2.7c0.4-0.55-7.75,3.16-6.5,9.66
			c0.8,4.18-1.72,6.96-3.62,8.42c-0.9,5.31-3.66,9.18-6.99,9.25c-4.18,0.08-7.69-5.84-7.84-13.23c0-0.04,0-0.09,0-0.13
			c-0.4-0.77-0.78-1.8-0.89-3.05c-0.16-1.94,1-4.93,0.97-4.54c-0.09,1.19,0.07,2.08,0.35,2.77c0.87-4.29,2.97-7.52,5.59-8.37
			c-1.21-2.69-3.45-4.26-4.87-3.92c-2.41,0.57-4.79,0.68-5.6,7.89c-0.81,7.21,1.67,8.32,2.19,9.26c0,0-4.39,0.14-7.27-5.71
			c0,0-0.25,8.97-5.69,7.78c0,0,2.91-2.48,2.53-6.67c-0.43-4.76-6.87-12.52-6.87-12.52c-7.84,12.66-3.81,19.28-3.81,19.28
			c-5.42,1.32-5.85-7.64-5.85-7.64c-2.76,5.93-7.15,5.89-7.15,5.89c0.5-0.96,2.96-2.12,2-9.32c-0.96-7.19-3.34-7.23-5.76-7.75
			c-1.47-0.31-3.77,1.42-4.89,4.3c1.79,0.26,3.42,1.62,4.67,3.69c1.03,0.38,2.1,1.55,2.67,3.07c0.5,1.34,0.22,3.09-0.32,4.6
			c0.06,0.6,0.1,1.2,0.11,1.82c0.15,7.39-3.12,13.45-7.3,13.54c-3.32,0.07-6.22-3.67-7.35-8.91c-1.9-1.17-5.44-4.04-4.61-8.88
			c1.12-6.53-7.11-10.03-6.7-9.49c0.41,0.54,0.35,2.69,0.35,2.69s-1.48,4.46,1.3,8.7c2.78,4.24,4.88,1.22,4.88,1.22
			c-0.12,4.4-2.64,4.33-2.64,4.33c-5.61,1.33-9.6-6.17-9.6-6.17c-1.26,6.66,3.04,6.92,3.04,6.92s-0.34,0.9-2.57,1.61
			c-2.23,0.71-3.65-2.04-3.65-2.04c-0.55,0.77-0.9,1.6-1.11,2.43c-0.04,1.29-0.1,2.63-0.2,3.95c0.17,1.33,0.5,2.23,0.5,2.23
			c-0.24-0.08-0.46-0.18-0.67-0.29c-0.03,0.31-0.06,0.61-0.1,0.91c-0.13,1.07-1.8,8.02,0.86,13.98
			c4.18,9.34,14.34,17.52,21.56,19.46c14.96,4.03,33.26,3.26,33.26,3.26s18.42,0.03,33.2-4.6c7.13-2.23,16.96-10.81,20.75-20.31
			c2.4-6,0.51-12.78,0.3-13.96C148.73,123.49,148.59,123.55,148.44,123.61z"/>
	</g>
</g>
</svg>
