<!-- Generator: Adobe Illustrator 25.0.0, SVG Export Plug-In  -->
<svg version="1.1" xmlns="http://www.w3.org/2000/svg" xmlns:xlink="http://www.w3.org/1999/xlink" x="0px" y="0px"
	 width="161.45px" height="147.47px" viewBox="0 0 161.45 147.47"
	 style="overflow:visible;enable-background:new 0 0 161.45 147.47;" xml:space="preserve">
<style type="text/css">
	.st0{fill:#212121;}
	.st1{fill:#0D7377;}
	.st2{display:none;}
	.st3{display:inline;fill:#0D7377;}
</style>
<defs>
</defs>
<g>
	<line class="st0" x1="72.23" y1="119.17" x2="86.06" y2="120.81"/>
	<path class="st0" d="M139.54,106.49c-1.14-7.97-0.87-18.05-0.87-18.05S122.53,63.46,80.2,61.58c-42.31,2.34-58.18,27.5-58.18,27.5
		s0.39,10.08-0.67,18.05c-0.15,1.15-2.07,8.59,0.7,15.03c4.34,10.11,15.13,19.05,22.86,21.25c16.02,4.56,35.7,4.03,35.7,4.03
		s19.79,0.32,35.76-4.42c7.7-2.29,18.4-11.35,22.63-21.5C141.7,115.06,139.71,107.64,139.54,106.49z M52.65,108.44
		c-4.5,0.02-8.17-6.4-8.22-14.34S48,79.69,52.49,79.66c4.5-0.02,8.18,6.4,8.22,14.34S57.15,108.41,52.65,108.44z M109.67,108.13
		c-4.5,0.02-8.18-6.4-8.22-14.34s3.57-14.41,8.06-14.43c4.5-0.02,8.17,6.4,8.22,14.34S114.17,108.1,109.67,108.13z"/>
	<path class="st0" d="M27.52,82.54"/>
	<g>
		<path class="st1" d="M76.91,10.61c4.22,0.5,9.02,6.5,9.02,6.5c2.61,2.96,2.81,8.41,2.81,8.41s1.65-1.26,2.21-3.8
			s-0.9-10.29,1.74-14.68c2.65-4.39,8.37-7.43,9.18-6.88c0,0-5.31,5.3-5.08,13.75c0.23,8.45,4.36,10.71,4.36,10.71
			s-0.76-6.3,0.55-6.25c1.31,0.05,3.56-5.9,3.07-7.15c0,0-0.07-5.25-1.64-6.39c0,0,5.43,1.49,5.28,6.14s-2.12,9-0.67,12.68
			s4.85,7.34,6.6,7.15c0,0-3.17-3.81-2.35-8.37c0.83-4.56,1.98-6.74,3.31-7.13c0,0-3.09,6.77,1.57,9.52c0,0,2.25-0.53,2.94-8.87
			c0,0,1.58-7.13,4.93-8.53c0,0-3.65,6.19-1.81,9.47c0,0,5.55,5.8,5.71,8.89c0,0,1.61,0.4,1.62-3.59s-3.02-4.9-3.02-4.9
			s6.36-2.28,7.63,6.65c0,0,0.56,2.37-1.4,7.12c0,0-0.73,7.62,3.41,7.75c0,0,4.49,1.26,4.94-6.65s-1.96-9.85-1.96-9.85
			s4.68,0.8,5.36,3.68c0,0,4.83-1.15,8.48,4.44c0,0-9.42-1.94-8.21,6.5c0,0,2.91-2.83,6.68,0.02c3.77,2.85,3.76,7.27,3,9.11
			c0,0-1.03-5.84-5.13-4.9c0,0-4.54,0.63-0.18,9.88c0,0,0.5-3.18,6.35-2.61c0,0,4.03,3.57,3.9,6.4c0,0-1.75-2.52-4.2-1.94
			s-2.8,4.36-2.8,4.36s2.68,5.93,1.6,8.9c0,0,2.76-5.42,5.38-4.82c0,0-1.59,1.41-1.31,3.1c0.28,1.69,0.39,11.03-2.53,14
			s-4.6,4.42-6.49,3.73c0,0,0.96,3.57,4.28,4.06c3.32,0.49,3.33,0.95,6.99-0.74c0,0,1.64,4.04-1.82,5.85
			c-3.46,1.81-10.05,2.16-12.54-3.04c0,0-1.6,5.99,3.13,11.21s10.78,1,10.69-0.81c0,0-0.31,8.31-7.73,9.37c0,0-5.24,1.54-9.58-7.34
			c0,0-0.29,4.61-4.12,6.03c0,0,1.89-5.32-0.93-9.25c0,0-1.51,2.97-3.91,2.23c-2.4-0.74-2.78-1.7-2.78-1.7s4.62-0.34,3.22-7.48
			c0,0-4.24,8.11-10.28,6.74c0,0-2.71,0.11-2.87-4.62c0,0,2.28,3.22,5.24-1.37c2.96-4.59,1.34-9.36,1.34-9.36s-0.09-2.31,0.35-2.9
			s-8.38,3.27-7.14,10.27c1.24,7.01-6.11,10.27-6.11,10.27s3.81-5.76,2.4-9.01c-1.41-3.25-3.74-6.03-3.74-6.03s0.02,7.71-3.93,10.13
			c-3.72,2.28-6.06,1.89-7.39,0.64c-0.32-0.3-1.85-2.1-2.04-4.95c-0.14-2.09,1.15-5.28,1.11-4.86c-0.28,3.26,1.15,4.43,2.19,5.34
			c0.65,0.57,2.64,2.97,4.65-3.98c2.01-6.94-2.98-12.15-5.53-11.58c-2.6,0.58-5.15,0.65-6.14,8.39s1.66,8.96,2.21,9.99
			c0,0-4.73,0.09-7.72-6.25c0,0-0.41,9.63-6.24,8.28c0,0,3.16-2.62,2.82-7.13C87.5,83.44,80.71,75,80.71,75
			c-8.63,13.48-4.4,20.66-4.4,20.66c-5.84,1.33-6.17-8.3-6.17-8.3c-3.06,6.32-7.78,6.22-7.78,6.22c0.56-1.02,3.21-2.24,2.3-9.98
			c-0.92-7.74-3.48-7.83-6.07-8.42c-2.55-0.58-7.59,4.61-5.64,11.56c1.95,6.95,4.15,4.53,4.62,4c0.47-0.53,1.15-2.68-0.08-4.1
			c-1.23-1.42-1.2,0.83-1.2,0.83s-1.44-1.39-0.15-3.15s3.9-0.03,4.9,2.79c0.97,2.71-1.03,6.96-2.25,8.1
			c-1.35,1.25-3.69,1.63-7.39-0.66c-3.93-2.44-3.84-10.15-3.84-10.15s-2.35,2.77-3.79,6.01c-1.44,3.24,2.32,9.02,2.32,9.02
			s-7.32-3.29-6.02-10.29c1.3-7-7.48-10.89-7.05-10.3c0.43,0.59,0.33,2.9,0.33,2.9s-1.66,4.77,1.26,9.37s5.23,1.39,5.23,1.39
			c-0.2,4.73-2.91,4.61-2.91,4.61c-6.05,1.34-10.22-6.78-10.22-6.78c-1.46,7.14,3.16,7.49,3.16,7.49s-0.38,0.96-2.79,1.69
			c-2.41,0.73-3.89-2.25-3.89-2.25c-2.85,3.91-1.01,9.24-1.01,9.24c-3.82-1.43-4.07-6.05-4.07-6.05c-4.42,8.87-9.64,7.3-9.64,7.3
			c-7.41-1.09-7.64-9.4-7.64-9.4c-0.11,1.81,5.9,6.05,10.68,0.85C16.29,94,14.74,88,14.74,88c-2.54,5.19-9.13,4.82-12.57,2.99
			s-1.77-5.86-1.77-5.86c3.65,1.71,3.66,1.24,6.98,0.77c3.33-0.48,4.32-4.04,4.32-4.04c-1.89,0.68-3.56-0.78-6.45-3.76
			s-2.7-12.32-2.4-14.01s-1.28-3.1-1.28-3.1c2.63-0.59,5.34,4.84,5.34,4.84c-1.05-2.98,1.68-8.9,1.68-8.9s-0.31-3.79-2.76-4.38
			s-4.22,1.92-4.22,1.92C1.5,51.65,5.56,48.1,5.56,48.1c5.85-0.55,6.32,2.63,6.32,2.63c4.44-9.24-0.09-9.88-0.09-9.88
			c-4.1-0.96-5.18,4.88-5.18,4.88c-0.74-1.85-0.72-6.27,3.08-9.1c3.8-2.83,6.68,0.01,6.68,0.01c1.28-8.43-8.15-6.53-8.15-6.53
			c3.7-5.58,8.52-4.41,8.52-4.41c0.71-2.87,5.4-3.66,5.4-3.66s-2.43,1.93-2.04,9.84s4.88,6.67,4.88,6.67
			c4.14-0.11,3.48-7.73,3.48-7.73c-1.91-4.76-1.34-7.13-1.34-7.13c1.35-8.92,7.69-6.62,7.69-6.62s-3.05,0.9-3.07,4.89
			c-0.02,3.99,1.59,3.6,1.59,3.6c0.19-3.09,5.79-8.87,5.79-8.87c1.86-3.27-1.73-9.47-1.73-9.47c3.34,1.41,4.85,8.54,4.85,8.54
			c0.62,8.34,2.86,8.88,2.86,8.88c4.68-2.72,1.65-9.51,1.65-9.51c1.33,0.39,2.46,2.58,3.25,7.14c0.79,4.56-2.42,8.36-2.42,8.36
			c1.75,0.2,5.18-3.45,6.67-7.12s-0.45-8.04-0.55-12.68s5.33-6.11,5.33-6.11c-1.58,1.13-1.7,6.38-1.7,6.38
			c-0.5,1.25,1.7,7.21,3.01,7.16s0.49,6.25,0.49,6.25s4.15-2.24,4.46-10.69c0.31-8.45-4.95-13.77-4.95-13.77
			c0.82-0.55,6.52,2.52,9.12,6.91c2.61,4.4,1.08,12.14,1.61,14.69c0.53,2.55,5.56,6.67,5.56,6.67l2.03-4.58
			c1.02-1.84,2.45-4.19,1.1-7.97L76.91,10.61"/>
		<g class="st2">
			<path class="st3" d="M75.72,35.2c-0.78-2.24-0.1-4.73,0.92-6.88s2.38-4.14,3.05-6.42c1.16-3.9,0.06-8.39-2.78-11.3
				c3.36,1.65,6.82,3.46,9.02,6.5c2.59,3.58,2.98,8.27,3.02,12.69c0.01,0.74,0.01,1.49,0.22,2.2c0.54,1.75,2.28,2.86,4.05,3.35"/>
		</g>
		<g>
			<path class="st1" d="M134.16,53.99c0.37-1.33,2.5-1.24,3.34-0.15c0.84,1.1,0.8,2.6,0.86,3.98c0.23,5.58,2.85,11.21,7.51,14.28
				c-3.48,2.53-8.81,2.07-11.8-1.03c-0.78-0.81-1.4-1.76-2.06-2.68c-1.19-1.68-2.54-3.32-4.31-4.36c-1.78-1.04-4.08-1.39-5.91-0.44"
				/>
		</g>
		<g>
			<path class="st1" d="M106.75,45.93c-0.84-0.02-1.69,0.26-2.36,0.77c-1.44,1.09-1.95,3.04-1.94,4.85s0.43,3.59,0.45,5.39
				c0.04,4.65-2.94,9.19-7.22,11.01c2.46-0.21,4.72-1.41,6.9-2.58c3.28-1.77,6.85-3.88,7.97-7.43c0.31-0.97,0.41-1.99,0.73-2.95
				c0.68-2.01,2.37-3.66,4.4-4.28"/>
		</g>
		<g>
			<path class="st1" d="M50.05,50.92c-0.72,1.56-2.39,2.47-3.3,3.93c-2.05,3.29,0.48,7.72-0.69,11.41
				c-0.34,1.07-0.97,2.02-1.61,2.94c-0.93,1.33-1.9,2.64-3.17,3.64c-1.27,1-2.88,1.66-4.49,1.49c3.01-2.07,3.6-6.27,3.24-9.91
				c-0.36-3.63-1.37-7.32-0.51-10.87c0.45-1.87,1.41-3.58,2.44-5.21"/>
		</g>
		<g>
			<path class="st1" d="M28.18,55.02c-0.76-0.04-1.41,0.61-1.65,1.33c-0.24,0.72-0.18,1.5-0.18,2.26c0.02,3.41-1.19,6.82-3.37,9.45
				c-1.98,2.4-4.85,4.43-5.27,7.51c-0.23,1.7,0.41,3.5,1.68,4.66c0.16-2.33,1.38-4.57,3.26-5.96c1.6-1.18,3.56-1.73,5.38-2.53
				c1.82-0.8,3.64-2,4.32-3.87c0.61-1.66,0.2-3.49,0.13-5.25c-0.08-2.02,0.32-4.07,1.14-5.92"/>
		</g>
		<g>
			<path class="st1" d="M68.99,49.92c-0.98,0.66-1.75,1.64-2.17,2.75c-0.51,1.37-0.47,2.88-0.74,4.32c-0.68,3.62-3.48,6.76-7,7.85
				c4.32,1.04,8.98,0.55,12.99-1.36c2-0.96,3.91-2.33,4.93-4.3c1.02-1.99,1.06-4.41,2.27-6.29c1.19-1.85,3.51-2.91,5.69-2.6"/>
		</g>
	</g>
</g>
</svg>
