<!-- Generator: Adobe Illustrator 25.0.0, SVG Export Plug-In  -->
<svg version="1.1" xmlns="http://www.w3.org/2000/svg" xmlns:xlink="http://www.w3.org/1999/xlink" x="0px" y="0px"
	 width="380.87px" height="380.87px" viewBox="0 0 380.87 380.87"
	 style="overflow:visible;enable-background:new 0 0 380.87 380.87;" xml:space="preserve">
<style type="text/css">
	.st0{fill:#EEEEEE;stroke:#EEEEEE;stroke-miterlimit:10;}
	.st1{display:none;}
	.st2{display:inline;}
</style>
<defs>
</defs>
<circle class="st0" cx="190.44" cy="190.44" r="189.94"/>
<g>
	<g>
		<g>
			<path d="M182.34,103.91c0,0-7.53-6.23-8.61-11.07c-1.09-4.84-1.18-19.84-6.28-28.14c-5.09-8.31-16.03-13.99-17.59-12.92
				c0,0,10.18,10.01,9.83,26.12c-0.35,16.12-8.2,20.51-8.2,20.51s1.38-12.03-1.11-11.9s-6.86-11.18-5.94-13.57
				c0,0,0.08-10.02,3.06-12.21c0,0-10.33,2.96-10,11.81c0.33,8.85,4.15,17.12,1.41,24.16c-2.74,7.04-9.17,14.09-12.51,13.77
				c0,0,6.01-7.33,4.38-16.01s-3.85-12.82-6.39-13.53c0,0,5.97,12.85-2.88,18.18c0,0-4.29-0.97-5.71-16.85
				c0,0-3.09-13.57-9.49-16.16c0,0,7.02,11.73,3.56,18.01c0,0-10.51,11.18-10.79,17.08c0,0-3.06,0.79-3.14-6.82
				c-0.08-7.61,5.71-9.41,5.71-9.41S89.5,80.73,87.17,97.77c0,0-1.03,4.53,2.75,13.56c0,0,1.48,14.52-6.42,14.84
				c0,0-8.54,2.49-9.5-12.58s3.62-18.83,3.62-18.83s-8.91,1.62-10.18,7.12c0,0-9.22-2.1-16.11,8.64c0,0,17.93-3.88,15.72,12.22
				c0,0-5.58-5.33-12.74,0.17c-7.17,5.5-7.08,13.93-5.61,17.44c0,0,1.89-11.16,9.73-9.46c0,0,8.65,1.1,0.45,18.84
				c0,0-0.99-6.06-12.13-4.85c0,0-7.65,6.88-7.36,12.28c0,0,3.3-4.83,7.99-3.79s5.39,8.26,5.39,8.26s-5.04,11.35-2.95,17.01
				c0,0-5.32-10.28-10.32-9.09c0,0,3.05,2.65,2.53,5.88c-0.52,3.23-0.62,21.04,4.97,26.64c5.59,5.6,8.83,8.34,12.41,6.98
				c0,0-1.78,6.82-8.12,7.82c-6.33,1-6.33,1.89-13.34-1.26c0,0-3.08,7.74,3.53,11.13s19.18,3.91,23.88-6.06
				c0,0,3.12,11.39-5.85,21.44c-8.97,10.04-20.55,2.12-20.39-1.33c0,0,0.68,15.84,14.83,17.7c0,0,10.01,2.84,18.18-14.19
				c0,0,0.61,8.79,7.93,11.41c0,0-3.67-10.11,1.66-17.65c0,0,2.9,5.63,7.48,4.17c4.58-1.46,5.28-3.3,5.28-3.3s-8.81-0.55-6.23-14.19
				c0,0,8.18,15.37,19.67,12.65c0,0,5.17,0.15,5.41-8.87c0,0-4.31,6.18-10-2.51s-2.67-17.83-2.67-17.83s0.14-4.41-0.71-5.51
				c-0.85-1.11,16.01,6.06,13.72,19.45c-2.29,13.38,11.76,19.45,11.76,19.45s-7.32-10.91-4.68-17.13
				c2.65-6.22,7.06-11.57,7.06-11.57s0.05,14.7,7.6,19.24c7.12,4.28,11.57,3.49,14.1,1.06c2.29-2.19,5.98-10.35,4.07-15.5
				c-1.99-5.34-7.01-8.56-9.43-5.17s0.37,6,0.37,6s-0.11-4.28,2.27-1.62c2.38,2.67,1.14,6.78,0.26,7.81c-0.88,1.02-5,5.71-8.91-7.49
				s5.54-23.23,10.42-22.2c4.95,1.05,9.83,1.13,11.8,15.88s-3.06,17.12-4.1,19.09c0,0,9.01,0.07,14.66-12.08
				c0,0,0.89,18.36,11.99,15.65c0,0-8.26-13.56,7.81-39.51c0,0,13.19,15.91,14.08,25.65c0.78,8.58-5.18,13.67-5.18,13.67
				c11.16,2.42,11.67-15.95,11.67-15.95c5.9,12,14.9,11.7,14.9,11.7c-1.07-1.94-6.15-4.2-4.49-18.98
				c1.66-14.79,6.54-14.99,11.47-16.17c4.86-1.16,14.51,8.63,10.87,21.92c-3.64,13.3-7.51,8.79-8.76,7.71
				c-1.99-1.72-4.76-3.9-4.32-10.13c0.06-0.8-2.32,5.32-1.99,9.3c0.45,5.43,3.41,8.81,4.03,9.38c2.58,2.36,7.05,3.04,14.07-1.42
				c7.46-4.73,7.2-19.43,7.2-19.43s4.52,5.23,7.29,11.39s-4.33,17.24-4.33,17.24s13.92-6.42,11.36-19.74
				c-2.56-13.32,14.14-20.92,13.32-19.79c-0.82,1.13-0.6,5.53-0.6,5.53s3.21,9.05-2.3,17.89c-5.51,8.84-9.95,2.76-9.95,2.76
				c0.43,9.01,5.59,8.73,5.59,8.73c11.54,2.43,19.41-13.14,19.41-13.14c2.86,13.58-5.94,14.35-5.94,14.35s0.74,1.82,5.34,3.16
				c4.6,1.34,7.39-4.36,7.39-4.36c5.49,7.41,2.03,17.61,2.03,17.61c7.27-2.81,7.7-11.61,7.7-11.61
				c8.52,16.82,18.47,13.73,18.47,13.73c14.11-2.22,14.47-18.08,14.47-18.08c0.23,3.45-11.18,11.66-20.35,1.85
				c-9.18-9.81-6.29-21.28-6.29-21.28c4.9,9.84,17.46,9,24,5.45c6.54-3.56,3.3-11.21,3.3-11.21c-6.93,3.33-6.96,2.44-13.31,1.6
				c-6.35-0.84-8.28-7.62-8.28-7.62c3.61,1.27,6.79-1.55,12.26-7.29s5.01-23.55,4.42-26.76c-0.58-3.21,2.41-5.94,2.41-5.94
				c-5.02-1.06-10.13,9.35-10.13,9.35c1.98-5.71-3.3-16.93-3.3-16.93s0.55-7.23,5.22-8.4c4.67-1.17,8.07,3.58,8.07,3.58
				c0.18-5.41-7.61-12.09-7.61-12.09c-11.16-0.93-12.03,5.15-12.03,5.15c-8.56-17.52,0.07-18.85,0.07-18.85
				c7.8-1.91,9.92,9.21,9.92,9.21c1.4-3.54,1.31-11.97-5.97-17.29c-7.28-5.32-12.74,0.15-12.74,0.15
				c-2.54-16.05,15.47-12.62,15.47-12.62c-7.11-10.56-16.29-8.23-16.29-8.23c-1.39-5.46-10.33-6.86-10.33-6.86s4.65,3.63,4.01,18.73
				c-0.65,15.09-9.23,12.82-9.23,12.82c-7.9-0.13-6.72-14.68-6.72-14.68c3.6-9.12,2.47-13.62,2.47-13.62
				c-2.67-16.98-14.73-12.46-14.73-12.46s5.83,1.66,5.9,9.27c0.07,7.61-3,6.9-3,6.9c-0.4-5.89-11.14-16.8-11.14-16.8
				c-3.59-6.19,3.19-18.1,3.19-18.1c-6.34,2.75-9.16,16.39-9.16,16.39c-1.09,15.92-5.36,16.99-5.36,16.99
				c-8.95-5.1-3.25-18.1-3.25-18.1c-2.53,0.78-4.67,4.98-6.11,13.69c-1.45,8.71,4.71,15.89,4.71,15.89
				c-3.33,0.41-9.91-6.47-12.79-13.44c-2.88-6.97,0.76-15.34,0.91-24.19s-10.24-11.55-10.24-11.55c3.02,2.12,3.31,12.13,3.31,12.13
				c0.97,2.37-3.16,13.78-5.66,13.72c-2.5-0.06-0.87,11.93-0.87,11.93s-7.94-4.19-8.62-20.29s9.29-26.37,9.29-26.37
				c-1.58-1.03-12.4,4.93-17.32,13.37s-1.93,23.17-2.91,28.04c0,0-0.58,7.37-3.83,10.18"/>
			<g>
				<path d="M180.15,118.34c-1.54-4.25-0.31-9.02,1.57-13.14c1.88-4.12,4.42-7.97,5.64-12.32c2.1-7.47-0.13-15.99-5.62-21.47
					c6.45,3.05,13.11,6.41,17.37,12.14c5.04,6.76,5.91,15.69,6.12,24.11c0.03,1.41,0.06,2.84,0.49,4.18
					c1.07,3.32,4.44,5.39,7.81,6.26"/>
			</g>
		</g>
		<g class="st1">
			<g class="st2">
				<path d="M292.11,152.51c0.67-2.54,4.73-2.44,6.36-0.37c1.63,2.07,1.6,4.93,1.75,7.56c0.6,10.64,5.74,21.3,14.73,27.02
					c-6.57,4.93-16.74,4.19-22.52-1.64c-1.51-1.52-2.73-3.32-3.99-5.05c-2.32-3.17-4.93-6.26-8.35-8.19s-7.81-2.54-11.27-0.68"/>
			</g>
			<g class="st2">
				<path d="M239.63,137.92c-1.61-0.02-3.21,0.55-4.47,1.54c-2.71,2.12-3.63,5.86-3.56,9.3c0.06,3.44,0.93,6.83,1,10.27
					c0.2,8.87-5.34,17.6-13.45,21.19c4.69-0.46,8.96-2.82,13.07-5.12c6.21-3.47,12.95-7.58,14.99-14.4c0.56-1.85,0.72-3.8,1.31-5.64
					c1.23-3.86,4.41-7.05,8.27-8.29"/>
			</g>
			<g class="st2">
				<path d="M131.66,149.02c-1.33,3-4.49,4.78-6.18,7.59c-3.81,6.33,1.12,14.7-0.99,21.78c-0.61,2.05-1.79,3.87-2.98,5.64
					c-1.73,2.55-3.56,5.09-5.95,7.03s-5.44,3.25-8.51,2.98c5.68-4.02,6.68-12.06,5.9-18.98s-2.83-13.93-1.28-20.71
					c0.81-3.58,2.59-6.87,4.51-9.99"/>
			</g>
			<g class="st2">
				<path d="M90.07,157.46c-1.45-0.06-2.67,1.21-3.11,2.59c-0.44,1.38-0.3,2.87-0.28,4.31c0.13,6.51-2.09,13.04-6.15,18.12
					c-3.7,4.63-9.11,8.57-9.83,14.46c-0.4,3.25,0.89,6.66,3.33,8.84c0.23-4.45,2.5-8.75,6.04-11.45c3.01-2.3,6.74-3.4,10.19-4.98
					c3.45-1.58,6.88-3.92,8.12-7.5c1.11-3.18,0.28-6.66,0.1-10.02c-0.2-3.86,0.49-7.76,2.01-11.31"/>
			</g>
			<g class="st2">
				<path d="M167.74,146.59c-1.86,1.29-3.3,3.18-4.05,5.31c-0.93,2.63-0.82,5.5-1.3,8.25c-1.2,6.92-6.45,12.98-13.13,15.16
					c8.26,1.85,17.14,0.79,24.73-2.97c3.79-1.88,7.39-4.55,9.27-8.35c1.9-3.82,1.9-8.43,4.15-12.05c2.22-3.57,6.6-5.65,10.77-5.12"
					/>
			</g>
		</g>
	</g>
	<g>
		<path d="M302.93,252.81c0,0,0.29-0.87,0.58-2.29c-0.62-4.33-1.03-8.91-1.32-13.23c-0.36-0.71-0.79-1.41-1.29-2.09
			c0,0-2.79,5.71-7.39,4.36c-4.6-1.34-5.34-3.16-5.34-3.16s8.8-0.77,5.94-14.35c0,0-7.86,15.57-19.41,13.14c0,0-5.16,0.28-5.59-8.73
			c0,0,4.44,6.07,9.95-2.76c5.51-8.84,2.3-17.89,2.3-17.89s-0.23-4.41,0.6-5.53c0.82-1.13-15.88,6.47-13.32,19.79
			c1.65,8.56-3.52,14.27-7.42,17.26c-1.85,10.89-7.49,18.82-14.33,18.96c-8.57,0.17-15.77-11.97-16.07-27.12c0-0.09,0-0.18,0-0.27
			c-0.82-1.57-1.6-3.68-1.82-6.25c-0.33-3.97,2.05-10.1,1.99-9.3c-0.18,2.45,0.15,4.27,0.72,5.68c1.79-8.79,6.1-15.42,11.45-17.15
			c-2.47-5.52-7.08-8.73-9.98-8.04c-4.93,1.18-9.81,1.38-11.47,16.17c-1.66,14.79,3.42,17.04,4.49,18.98c0,0-9.01,0.3-14.9-11.7
			c0,0-0.51,18.38-11.67,15.96c0,0,5.96-5.08,5.18-13.67c-0.89-9.75-14.08-25.65-14.08-25.65c-16.08,25.94-7.81,39.51-7.81,39.51
			c-11.1,2.7-11.99-15.65-11.99-15.65c-5.65,12.14-14.66,12.08-14.66,12.08c1.03-1.97,6.07-4.35,4.1-19.09s-6.85-14.82-11.8-15.88
			c-3-0.64-7.73,2.92-10.02,8.82c3.66,0.53,7,3.31,9.56,7.56c2.11,0.78,4.3,3.17,5.46,6.29c1.02,2.74,0.45,6.34-0.65,9.43
			c0.12,1.22,0.2,2.47,0.22,3.74c0.31,15.15-6.4,27.57-14.97,27.74c-6.81,0.14-12.76-7.51-15.06-18.27
			c-3.88-2.39-11.15-8.29-9.45-18.2c2.29-13.38-14.57-20.55-13.72-19.45c0.85,1.11,0.71,5.51,0.71,5.51s-3.03,9.13,2.67,17.83
			c5.69,8.69,10,2.51,10,2.51c-0.25,9.02-5.41,8.87-5.41,8.87c-11.49,2.72-19.67-12.65-19.67-12.65
			c-2.58,13.65,6.23,14.19,6.23,14.19s-0.7,1.84-5.28,3.3c-4.58,1.46-7.48-4.17-7.48-4.17c-1.12,1.59-1.84,3.29-2.28,4.98
			c-0.08,2.65-0.21,5.39-0.4,8.09c0.35,2.72,1.02,4.58,1.02,4.58c-0.49-0.17-0.94-0.38-1.37-0.6c-0.06,0.63-0.13,1.25-0.2,1.87
			c-0.26,2.19-3.7,16.43,1.76,28.64c8.56,19.15,29.39,35.9,44.18,39.88c30.66,8.25,68.17,6.69,68.17,6.69s37.75,0.05,68.05-9.43
			c14.62-4.57,34.76-22.15,42.54-41.62c4.91-12.29,1.04-26.2,0.62-28.61C303.52,252.56,303.23,252.69,302.93,252.81z"/>
	</g>
</g>
</svg>
