<svg version="1.1" xmlns="http://www.w3.org/2000/svg" xmlns:xlink="http://www.w3.org/1999/xlink" x="0px" y="0px"
	 width="183.24px" height="183.24px" viewBox="0 0 183.24 183.24"
	 style="overflow:visible;enable-background:new 0 0 183.24 183.24;" xml:space="preserve">
<style type="text/css">
	.st0{fill:url(#SVGID_1_);}
	.st1{fill:#212121;stroke:#EEEEEE;stroke-miterlimit:10;}
	.st2{fill:#212121;stroke:#EEEEEE;stroke-width:5;stroke-miterlimit:10;}
	.st3{fill:#212121;stroke:#EEEEEE;stroke-width:0.25;stroke-miterlimit:10;}
	.st4{fill:#EEEEEE;stroke:#212121;stroke-width:3;stroke-miterlimit:10;}
	.st5{fill:#EEEEEE;}
	.st6{fill:#212121;}
	.st7{fill:url(#SVGID_2_);stroke:#EEEEEE;stroke-width:5;stroke-miterlimit:10;}
	.st8{fill:url(#SVGID_3_);stroke:#EEEEEE;stroke-width:5;stroke-miterlimit:10;}
	.st9{fill:url(#SVGID_4_);stroke:#EEEEEE;stroke-width:5;stroke-miterlimit:10;}
	.st10{fill:url(#SVGID_5_);stroke:#EEEEEE;stroke-width:5;stroke-miterlimit:10;}
</style>
<defs>
	<symbol  id="Nuevo_símbolo" viewBox="-408.81 -408.81 817.61 817.61">
		<g>
			<g>
				<radialGradient id="SVGID_1_" cx="0" cy="0" r="408.3065" gradientUnits="userSpaceOnUse">
					<stop  offset="0" style="stop-color:#EEEEEE"/>
					<stop  offset="0.0438" style="stop-color:#DCDCDC"/>
					<stop  offset="0.1725" style="stop-color:#AAAAAA"/>
					<stop  offset="0.3045" style="stop-color:#808080"/>
					<stop  offset="0.4378" style="stop-color:#5E5E5E"/>
					<stop  offset="0.5727" style="stop-color:#434343"/>
					<stop  offset="0.7097" style="stop-color:#303030"/>
					<stop  offset="0.8503" style="stop-color:#252525"/>
					<stop  offset="1" style="stop-color:#212121"/>
				</radialGradient>
				<path class="st0" d="M0-408.31c-55.12,0-108.59,10.8-158.93,32.09c-48.62,20.56-92.29,50.01-129.79,87.5
					s-66.94,81.16-87.5,129.79C-397.51-108.59-408.31-55.12-408.31,0s10.8,108.59,32.09,158.93c20.56,48.62,50.01,92.29,87.5,129.79
					s81.16,66.94,129.79,87.5C-108.59,397.51-55.12,408.31,0,408.31s108.59-10.8,158.93-32.09c48.62-20.56,92.29-50.01,129.79-87.5
					s66.94-81.16,87.5-129.79C397.51,108.59,408.31,55.12,408.31,0s-10.8-108.59-32.09-158.93c-20.56-48.62-50.01-92.29-87.5-129.79
					s-81.16-66.94-129.79-87.5C108.59-397.51,55.12-408.31,0-408.31z"/>
				<path d="M0,407.81c55.05,0,108.46-10.78,158.74-32.05c48.56-20.54,92.17-49.94,129.63-87.4c37.45-37.45,66.86-81.06,87.4-129.63
					C397.02,108.46,407.81,55.05,407.81,0s-10.78-108.46-32.05-158.74c-20.54-48.56-49.94-92.17-87.4-129.63
					c-37.45-37.45-81.07-66.86-129.63-87.4C108.46-397.02,55.05-407.81,0-407.81s-108.46,10.78-158.74,32.05
					c-48.56,20.54-92.17,49.94-129.63,87.4c-37.45,37.45-66.86,81.06-87.4,129.63C-397.02-108.46-407.81-55.05-407.81,0
					s10.78,108.46,32.05,158.74c20.54,48.56,49.94,92.17,87.4,129.63c37.45,37.45,81.07,66.86,129.63,87.4
					C-108.46,397.02-55.05,407.81,0,407.81 M0,408.81c-225.78,0-408.81-183.03-408.81-408.81S-225.78-408.81,0-408.81
					S408.81-225.78,408.81,0S225.78,408.81,0,408.81L0,408.81z"/>
			</g>
		</g>
	</symbol>
	<symbol  id="Nuevo_símbolo_1" viewBox="-352.06 -324.76 704.11 649.52">
		<line class="st1" x1="-16.08" y1="-200.02" x2="43.8" y2="-200.02"/>
		<path class="st2" d="M264.87-111.81c-8.92,33.43-12.84,76.61-12.84,76.61S170.44,63.3-11.24,49.89
			C-190.67,18.45-245.68-97.02-245.68-97.02s6.76-42.83,6.29-77.42c-0.07-4.98-4.47-37.71,10.62-63.83
			c23.65-40.95,74.27-73.67,108.37-79.15c70.69-11.37,154.46,0.88,154.46,0.88s84.67,8.67,150.43,36.99
			c31.72,13.66,72.79,57.77,85.71,103.26C278.43-147.27,266.15-116.62,264.87-111.81z M-105.12-164.14
			c-19.18-2.38-38.15,23.17-42.36,57.07c-4.21,33.9,7.92,63.32,27.11,65.7c19.18,2.38,38.15-23.17,42.36-57.07
			C-73.8-132.34-85.94-161.75-105.12-164.14z M138.19-133.91c-19.18-2.38-38.15,23.17-42.36,57.07s7.92,63.32,27.11,65.7
			c19.18,2.38,38.15-23.17,42.36-57.07S157.37-131.53,138.19-133.91z"/>
		<path class="st3" d="M-225.54-66.29"/>
		<path class="st4" d="M-20.64,195.71l20.02,2.13c0,0,13.99,16.53,15.07,27.69s-9.07,43.49,0,63.56s31.95,35.95,35.72,34.01
			c0,0-19.97-25.34-14.7-61.3s24.06-43.5,24.06-43.5s-6.45,26.51-0.83,26.95c5.62,0.44,12.22,26.99,9.49,32.08
			c0,0-2.98,22.4-10.24,26.44c0,0,23.92-3.62,25.65-23.52c1.73-19.9-4.51-39.51,3.59-54.47s24.44-28.87,31.82-27.17
			c0,0-15.48,14.67-14.26,34.54s5.03,29.8,10.52,32.13c0,0-9.76-30.48,11.51-39.83c0,0,9.32,3.41,8.06,39.36
			c0,0,3.13,31.26,16.72,38.9c0,0-12.43-28.28-2.94-41.33c0,0,26.62-21.96,28.89-35.08c0,0,7.05-0.89,5.12,16.16
			s-15.39,19.41-15.39,19.41s25.99,12.95,35.94-24.52c0,0,3.57-9.83-2.37-31.13c0,0,0.75-32.91,18.49-31.35
			c0,0,19.79-3.1,17.73,30.9s-13.35,41.07-13.35,41.07s20.38-1.05,24.76-12.98c0,0,20.04,7.37,38.45-14.66
			c0,0-41.18,3.49-31.75-31.9c0,0,10.99,13.55,28.55,3.31c17.56-10.24,19.72-29.12,17.41-37.39c0,0-7.35,24.43-24.4,18.34
			c0,0-19.05-4.98,4.24-42.28c0,0,0.53,13.84,25.78,14.36c0,0,19.02-13.18,19.88-25.35c0,0-8.73,9.86-18.93,6.16
			c-10.19-3.7-9.75-20.05-9.75-20.05s14.44-23.94,11.33-37.2c0,0,9.02,24.53,20.54,23.32c0,0-6.07-6.81-4.01-13.88
			c2.06-7.07,7.26-46.9-3.69-61.05C311.16,2.4,304.68-4.66,296.3-2.66c0,0,5.89-14.75,20.34-15.15c14.44-0.4,14.69-2.39,29.47,6.69
			c0,0,9.04-16.42-4.8-25.92c-13.83-9.5-41.81-14.3-55.1,6.63c0,0-3.81-26.39,19.06-46.26s46.54,1.21,45.22,8.88
			c0,0,2.9-35.64-28.24-43.91c0,0-21.59-9.24-44.62,26.49c0,0,1.09-19.85-14.55-27.84c0,0,5.38,23.68-8.64,39.02
			c0,0-4.92-13.45-15.56-11.51c-10.64,1.94-12.72,5.85-12.72,5.85s19.55,3.78,9.97,33.56c0,0-14-36.76-40.46-33.99
			c0,0-11.51-1.82-14.58,18.28c0,0,11.36-12.59,21.67,8.51s0.99,40.66,0.99,40.66s-1.54,9.83,0.05,12.54s-34.12-18.2-25.27-47.49
			s-20.88-46.92-20.88-46.92s13.34,26.52,5.69,39.67s-19.01,23.84-19.01,23.84s4-32.9-11.63-45.25
			c-14.72-11.63-24.89-11.15-31.23-6.46c-1.52,1.12-8.94,8.02-11.22,20.1c-1.67,8.83,2.24,23.13,2.29,21.31
			c0.45-14.08,7.17-18.31,12.04-21.71c3.05-2.13,12.77-11.33,17.84,19.34S103.54,6.67,92.91,2.93C82.12-0.86,71.24-2.46,70.95-36.01
			s11.63-37.43,14.49-41.53c0,0-20.13-2.76-36.15,22.77c0,0,3.14-41.33-22.45-38.5c0,0,12.18,12.79,8.43,31.86
			C31.01-39.76-2.28-7.15-2.28-7.15c-30.02-61.93-8.33-90.42-8.33-90.42c-24.28-8.65-30.54,32.32-30.54,32.32
			c-9.84-28.55-30.06-30.5-30.06-30.5c1.86,4.66,12.59,11.18,4.74,43.78s-18.81,31.65-30.16,32.86
			c-11.19,1.19-30.05-23.51-18.2-52.21s20-17.22,21.73-14.72s3.56,12.03-2.41,17.45s-4.72-4.16-4.72-4.16s-6.87,5.19-2.24,13.36
			c4.64,8.17,16.64,2.11,22.35-9.41c5.5-11.09-0.89-30.25-5.52-35.71c-5.11-6.03-14.91-8.84-31.87-0.9
			c-17.99,8.42-21.52,41.38-21.52,41.38s-8.65-13.02-13.14-27.59c-4.49-14.57,14.48-37.32,14.48-37.32s-32.92,10.33-30.91,40.88
			c2.01,30.55-37.46,42.7-35.31,40.42s2.87-12.2,2.87-12.2s-4.66-21.19,10.13-39.36c14.79-18.17,23.02-3.3,23.02-3.3
			c1.55-20.28-10.07-21.15-10.07-21.15c-25.14-8.79-47.06,23.78-47.06,23.78c-2.61-31.2,17.28-30.38,17.28-30.38
			s-1.14-4.29-11.06-8.63s-17.75,7.62-17.75,7.62c-10.2-18.16,0.38-39.98,0.38-39.98c-17.03,4.18-20.45,23.75-20.45,23.75
			c-14.37-40.09-37.48-36.07-37.48-36.07c-32.18,0.88-37.39,36.25-37.39,36.25c0.44-7.78,28.25-22.85,46.03,1.76
			s8.13,49.44,8.13,49.44c-8.22-23.44-36.55-25.2-52.16-19.14c-15.61,6.06-10.51,24.13-10.51,24.13
			c16.44-5.44,16.23-3.45,30.21,0.27s16.38,19.44,16.38,19.44c-7.72-3.88-15.61,1.5-29.46,12.77s-17.76,51.24-17.35,58.6
			c0.41,7.36-7.04,12.59-7.04,12.59c10.94,3.84,25.25-17.97,25.25-17.97c-6.01,12.2,2.65,38.83,2.65,38.83s-3.25,16.02-14.01,17.28
			c-10.76,1.26-17.04-10.35-17.04-10.35c-1.91,12.05,13.64,29.26,13.64,29.26c24.7,5.31,28.34-8.04,28.34-8.04
			c14.26,41.69-5.41,42.15-5.41,42.15c-17.97,2-19.62-23.47-19.62-23.47c-4.11,7.52-6.26,26.4,8.53,40.42s28.54,3.35,28.54,3.35
			c1.2,36.64-38.11,23.75-38.11,23.75c12.96,25.68,34.13,23.13,34.13,23.13c1.58,12.63,21.18,18.34,21.18,18.34
			s-9.4-9.48-3.74-43.06c5.66-33.58,24.23-26,24.23-26c17.63,2.57,10.93,34.79,10.93,34.79c-10.59,19.36-9.32,29.76-9.32,29.76
			c1.24,38.77,29.47,32.15,29.47,32.15s-12.57-5.39-10.61-22.44c1.96-17.05,8.62-14.56,8.62-14.56
			c-0.74,13.3,20.22,40.81,20.22,40.81c6.29,14.9-12.18,39.57-12.18,39.57c14.95-4.31,25.05-34.02,25.05-34.02
			c6.88-35.29,16.72-36.47,16.72-36.47c18.6,14,2.23,41.44,2.23,41.44c5.87-1,11.82-9.79,17.49-28.86s-6.1-36.92-6.1-36.92
			c7.56,0.05,20.35,17.35,24.85,33.79c4.51,16.44-5.99,34.09-8.79,53.87s19.68,28.81,19.68,28.81c-6.16-5.61-4.01-28.1-4.01-28.1
			c-1.51-5.58,10.9-29.91,16.47-29.05c5.57,0.86,5.27-26.43,5.27-26.43s16.59,11.67,13.62,47.9s-28.13,56.3-28.13,56.3
			c3.24,2.76,29.1-7.44,42.45-24.89c13.36-17.45,10.77-51.27,14.33-61.89c3.56-10.61,20.91-23.49,20.91-23.49L-20.64,195.71"/>
		<g>
			<path class="st5" d="M-43.75,160.22c-4.45,9.18-2.81,20.16,0.46,29.83s8.05,18.9,9.79,28.95c2.98,17.24-4.01,35.84-17.61,46.84
				c15.19-5.34,30.89-11.33,41.79-23.18C3.54,228.67,7.59,208.86,10,190c0.4-3.15,0.79-6.35,2.07-9.26
				c3.17-7.19,11.21-11.06,18.98-12.23"/>
			<g>
				<path class="st6" d="M-42.45,160.98c-7.16,15.08,2.02,31.64,7.11,45.79c2.55,7.09,4.26,14.42,3.99,21.99
					c-0.25,6.87-1.9,13.64-4.74,19.9c-3.19,7.04-7.97,13.36-13.96,18.25c-0.49-0.84-0.97-1.67-1.46-2.51
					c17.08-6.01,35.08-13.03,45.72-28.57c5.09-7.44,8.3-15.97,10.5-24.67c1.13-4.47,2-9,2.72-13.55c0.75-4.72,1-9.64,2.19-14.27
					c2.48-9.66,11.75-14.82,21.04-16.27c1.89-0.29,2.7,2.6,0.8,2.89c-8.26,1.29-16.7,5.5-18.95,14.18
					c-1.18,4.57-1.43,9.41-2.16,14.07c-0.72,4.55-1.58,9.08-2.7,13.55c-2.18,8.68-5.35,17.26-10.3,24.76
					c-5.05,7.65-11.87,13.74-19.7,18.44c-8.86,5.32-18.64,8.91-28.36,12.33c-1.37,0.48-2.62-1.56-1.46-2.51
					c10.54-8.6,17.09-21.69,17.79-35.27c0.39-7.59-1.29-14.84-3.85-21.95c-2.74-7.62-6.25-14.99-8.19-22.88
					c-2.05-8.36-2.38-17.29,1.38-25.22C-44.22,157.72-41.63,159.24-42.45,160.98L-42.45,160.98z"/>
			</g>
		</g>
		<g>
			<path class="st5" d="M215.29,109.65c0.92,5.86,10.03,6.57,14.17,2.32s4.75-10.68,5.69-16.54c3.81-23.72,17.84-46.43,39.32-57.17
				c-13.58-12.58-36.56-13.3-50.89-1.58c-3.75,3.07-6.89,6.8-10.14,10.4c-5.94,6.58-12.51,12.89-20.63,16.43
				c-8.12,3.54-18.11,3.88-25.44-1.1"/>
			<g>
				<path class="st6" d="M216.74,109.25c0.95,5.26,8.68,4.67,11.66,1.66c2.64-2.67,3.67-6.48,4.35-10.06
					c0.7-3.66,1.13-7.35,1.95-10.98c3.17-14.1,9.87-27.55,19.69-38.2c5.51-5.99,12.05-11.03,19.32-14.7c-0.1,0.79-0.2,1.57-0.3,2.36
					c-10.72-9.83-27.33-12.11-40.6-6.46c-3.42,1.46-6.6,3.46-9.38,5.92c-3.5,3.09-6.49,6.71-9.64,10.15
					c-5.88,6.43-12.47,12.58-20.59,16.04c-8.43,3.6-18.74,3.97-26.59-1.26c-1.6-1.06-0.1-3.66,1.51-2.59
					c7.07,4.7,16.33,4.37,23.92,1.1c8.07-3.48,14.52-9.77,20.32-16.2c3.19-3.53,6.28-7.21,9.96-10.25c2.87-2.38,6.05-4.29,9.49-5.73
					c6.74-2.83,14.25-3.78,21.49-2.86c8.24,1.05,16.06,4.39,22.21,10.02c0.68,0.63,0.54,1.93-0.3,2.36
					c-13.63,6.87-24.17,18.55-30.93,32.13c-3.39,6.81-5.81,14.09-7.25,21.55c-1.35,6.98-1.42,16.17-7.75,20.83
					c-4.74,3.48-14.21,2.9-15.46-4.01C213.5,108.16,216.4,107.35,216.74,109.25L216.74,109.25z"/>
			</g>
		</g>
		<g>
			<path class="st5" d="M94.19,130.15c-3.61-0.33-7.06-1.97-9.67-4.49c-5.58-5.39-6.77-13.98-5.83-21.68s3.67-15.1,4.64-22.8
				c2.52-19.84-7.89-40.72-25.24-50.67c10.42,2.14,19.44,8.4,28.13,14.52c13.12,9.24,27.28,20.03,30.28,35.78
				c0.81,4.28,0.73,8.69,1.62,12.95c1.87,8.95,8.25,16.83,16.61,20.51"/>
			<g>
				<path class="st6" d="M94.19,131.65c-8.03-0.84-13.97-6.7-16.15-14.29c-2.29-7.96-0.66-16.19,1.24-24.05
					c1.06-4.37,2.22-8.75,2.68-13.23c0.37-3.65,0.33-7.35-0.14-10.98c-0.91-7.15-3.43-14.09-7.18-20.23
					c-4.27-7.01-10.2-12.95-17.31-17.06c-1.52-0.88-0.47-3.09,1.16-2.74c8.52,1.8,16.13,6.21,23.26,11.04
					c6.44,4.37,12.88,8.87,18.79,13.96c5.59,4.81,10.79,10.36,14.15,16.98c1.68,3.31,2.88,6.85,3.46,10.52
					c0.69,4.4,0.62,8.92,1.77,13.24c2.14,8.05,8.01,14.78,15.58,18.17c1.76,0.79,0.23,3.38-1.51,2.59
					c-6.64-2.98-12.14-8.48-15.18-15.09c-1.7-3.69-2.47-7.53-2.87-11.56c-0.41-4.21-0.73-8.34-2.13-12.36
					c-4.92-14.15-18.59-23.42-30.31-31.62c-7.92-5.54-16.21-10.97-25.8-12.99c0.39-0.91,0.77-1.83,1.16-2.74
					c12.46,7.21,21.47,19.77,24.86,33.71c1.77,7.28,1.89,14.74,0.53,22.1c-1.57,8.43-4.73,16.72-4.29,25.41
					c0.21,4.08,1.21,8.2,3.5,11.63c2.42,3.62,6.4,6.13,10.74,6.58C96.09,128.85,96.11,131.85,94.19,131.65L94.19,131.65z"/>
			</g>
		</g>
		<g>
			<path class="st5" d="M51.68-62.84c1.81-1.23,3.61-2.46,5.42-3.69"/>
			<g>
				<path class="st6" d="M50.92-64.14c1.81-1.23,3.61-2.46,5.42-3.69c0.65-0.44,1.69-0.14,2.05,0.54c0.4,0.76,0.16,1.58-0.54,2.05
					c-1.81,1.23-3.61,2.46-5.42,3.69c-0.65,0.44-1.69,0.14-2.05-0.54C49.98-62.85,50.23-63.67,50.92-64.14L50.92-64.14z"/>
			</g>
		</g>
		<g>
			<path class="st5" d="M-145.36,80.12c-2.29-7.03-8.97-11.77-12.1-18.46c-7.07-15.08,5.94-32.71,2.85-49.08
				c-0.9-4.73-3.11-9.1-5.38-13.35c-3.28-6.13-6.79-12.25-11.71-17.16c-4.92-4.91-11.45-8.56-18.4-8.66
				c11.8,10.35,12.18,28.61,8.81,43.94s-9.58,30.58-7.7,46.16c0.99,8.22,4.21,16,7.79,23.47"/>
			<g>
				<path class="st6" d="M-146.81,80.52c-2.52-7.45-9.62-12.21-12.56-19.49c-2.93-7.28-1.6-15.29,0.12-22.69
					c1.78-7.68,4.29-15.54,3.45-23.52c-0.48-4.56-2.36-8.8-4.45-12.83c-2.08-4.01-4.25-8.01-6.77-11.76
					c-5.27-7.84-13.14-15.07-23.1-15.31c0.35-0.85,0.71-1.71,1.06-2.56c10.35,9.19,12.14,24.05,10.6,37.08
					c-1.96,16.54-9.66,32.15-9.38,49c0.16,9.85,3.73,19.02,7.93,27.79c0.83,1.73-1.76,3.26-2.59,1.51c-3.65-7.64-6.91-15.54-7.97-24
					c-1.07-8.51,0.31-17.11,2.28-25.4c3.49-14.7,9.07-29.43,6.67-44.78c-1.13-7.27-4.08-14.13-9.66-19.09
					c-0.98-0.87-0.2-2.59,1.06-2.56c8.82,0.21,16.59,5.37,22.09,11.98c2.96,3.56,5.41,7.49,7.65,11.52
					c2.3,4.14,4.64,8.35,6.16,12.85c2.76,8.17,1.27,16.62-0.68,24.79c-1.82,7.61-4.42,15.81-2.67,23.68
					c2.02,9.09,10.71,14.33,13.64,22.99C-143.3,81.55-146.19,82.34-146.81,80.52L-146.81,80.52z"/>
			</g>
		</g>
		<g>
			<path class="st5" d="M-236.68,51.51c-3.26-0.21-5.7-3.33-6.37-6.53c-0.67-3.2-0.02-6.5,0.39-9.74
				c1.81-14.56-1.64-29.72-9.58-42.07c-7.23-11.24-18.44-21.35-18.68-34.71c-0.13-7.38,3.54-14.73,9.52-19.06
				c-0.51,10.03,3.58,20.2,10.89,27.08c6.22,5.86,14.32,9.2,21.69,13.53c7.36,4.34,14.51,10.39,16.47,18.71
				c1.74,7.39-0.93,15-2.11,22.5c-1.35,8.61-0.7,17.52,1.88,25.84"/>
			<g>
				<path class="st6" d="M-236.68,53.01c-3.93-0.38-6.8-3.56-7.73-7.29c-1.13-4.55,0.27-9.31,0.58-13.88
					c0.62-9.05-0.78-18.17-4-26.65c-3.09-8.13-8.17-14.92-13.35-21.81c-4.75-6.31-9.64-13.16-10.89-21.15
					c-1.45-9.27,2.36-18.55,9.91-24.12c0.92-0.68,2.31,0.23,2.26,1.3c-0.36,7.94,2.12,15.9,6.98,22.21
					c5.23,6.79,12.99,10.62,20.37,14.6c6.84,3.69,13.67,7.92,18.17,14.43c2.27,3.29,3.64,7.05,4.01,11.03
					c0.42,4.61-0.52,9.23-1.44,13.73c-1.06,5.17-1.9,10.28-1.82,15.58c0.08,5.33,0.95,10.59,2.51,15.68
					c0.57,1.85-2.33,2.64-2.89,0.8c-2.75-9-3.31-18.52-1.69-27.79c1.52-8.68,4.53-17.71-0.25-25.93
					c-4.04-6.94-11.23-11.23-18.1-14.94c-7.36-3.98-15.07-7.84-20.47-14.44c-5.71-6.98-8.77-15.94-8.36-24.96
					c0.75,0.43,1.5,0.86,2.26,1.3c-6.25,4.61-9.56,12.53-8.61,20.21c0.92,7.42,5.38,13.85,9.72,19.7
					c4.79,6.45,9.75,12.68,13.06,20.07c3.43,7.66,5.4,15.93,5.74,24.33c0.2,4.97-0.51,9.73-0.97,14.65
					c-0.34,3.64,0.21,9.88,5.03,10.35C-234.77,50.19-234.75,53.19-236.68,53.01L-236.68,53.01z"/>
			</g>
		</g>
		<g>
			<path class="st5" d="M-65,93.97c-3.87-3.33-6.65-7.9-7.85-12.86c-1.48-6.12-0.56-12.53-0.99-18.81
				c-1.08-15.8-11.44-30.61-25.91-37.05c18.96-2.24,38.63,2.22,54.77,12.41c8.07,5.1,15.52,11.93,18.86,20.88
				c3.36,9,2.29,19.35,6.5,27.99c4.14,8.51,13.5,14.21,22.96,14"/>
			<g>
				<path class="st6" d="M-66.06,95.03c-4.03-3.53-6.98-8.3-8.24-13.52c-1.51-6.23-0.63-12.65-1.03-18.97
					c-0.62-9.85-5.04-19.34-11.81-26.48c-3.81-4.01-8.33-7.24-13.37-9.51c-1.52-0.68-0.53-2.65,0.76-2.8
					c19.41-2.24,39.58,2.37,56.03,12.93c7.45,4.79,14.46,11.08,18.15,19.29c4.02,8.96,2.95,19.13,6.53,28.19
					c3.54,8.98,12.76,15,22.37,14.86c1.93-0.03,1.93,2.97,0,3c-8.52,0.13-16.74-4.06-21.85-10.83c-5.92-7.85-5.57-17.91-7.57-27.1
					c-1-4.61-2.82-8.82-5.6-12.64c-2.62-3.59-5.95-6.71-9.5-9.37c-7.66-5.75-16.54-9.96-25.73-12.61
					c-10.65-3.07-21.83-3.99-32.84-2.73c0.25-0.93,0.5-1.86,0.76-2.8c9.07,4.08,16.6,11.35,21.31,20.09
					c2.38,4.42,4.08,9.24,4.87,14.2c0.94,5.9,0.29,11.83,0.71,17.76c0.47,6.57,3.18,12.53,8.17,16.9
					C-62.49,94.18-64.62,96.3-66.06,95.03L-66.06,95.03z"/>
			</g>
		</g>
	</symbol>
</defs>
<use xlink:href="#Nuevo_símbolo"  width="817.61" height="817.61" x="-408.81" y="-408.81" transform="matrix(0.2241 0 0 -0.2241 91.6213 91.6213)" style="overflow:visible;"/>
<g>
	
		<linearGradient id="SVGID_2_" gradientUnits="userSpaceOnUse" x1="15.6441" y1="148.3139" x2="15.6441" y2="108.2655" gradientTransform="matrix(0.9936 0.1129 -0.1129 0.9936 60.4293 -19.9294)">
		<stop  offset="0" style="stop-color:#C69C6D"/>
		<stop  offset="1" style="stop-color:#42210B"/>
	</linearGradient>
	<path class="st7" d="M82,108.85c0.25,11.05-8.74,20.21-20.07,20.46c-11.33,0.25-20.71-8.5-20.96-19.55
		c-0.25-11.05,8.74-20.21,20.07-20.46S81.75,97.8,82,108.85z"/>
	
		<linearGradient id="SVGID_3_" gradientUnits="userSpaceOnUse" x1="74.5609" y1="140.289" x2="74.5609" y2="100.2406" gradientTransform="matrix(0.9936 0.1129 -0.1129 0.9936 60.4293 -19.9294)">
		<stop  offset="0" style="stop-color:#C69C6D"/>
		<stop  offset="1" style="stop-color:#42210B"/>
	</linearGradient>
	<path class="st8" d="M141.45,107.53c0.25,11.05-8.74,20.21-20.07,20.46s-20.71-8.5-20.96-19.55c-0.25-11.05,8.74-20.21,20.07-20.46
		S141.2,96.48,141.45,107.53z"/>
</g>
<use xlink:href="#Nuevo_símbolo_1"  width="704.11" height="649.52" x="-352.06" y="-324.76" transform="matrix(0.2486 0.0197 0.0197 -0.2486 90.5507 87.4825)" style="overflow:visible;"/>
</svg>
