<!-- Generator: Adobe Illustrator 25.0.0, SVG Export Plug-In  -->
<svg version="1.1" xmlns="http://www.w3.org/2000/svg" xmlns:xlink="http://www.w3.org/1999/xlink" x="0px" y="0px"
	 width="883.66px" height="832.82px" viewBox="0 0 883.66 832.82"
	 style="overflow:visible;enable-background:new 0 0 883.66 832.82;" xml:space="preserve">
<style type="text/css">
	.st0{fill:#212121;}
	.st1{fill:#EEEEEE;}
	.st2{fill:#32E0C4;}
	.st3{display:none;}
	.st4{display:inline;fill:#32E0C4;}
</style>
<defs>
</defs>
<g>
	<g>
		<line class="st0" x1="416.25" y1="523.28" x2="476.14" y2="523.28"/>
		<path class="st1" d="M697.21,435.07c-8.92-33.43-12.84-76.61-12.84-76.61s-81.59-98.5-263.26-85.09
			c-179.44,31.44-234.45,146.91-234.45,146.91s6.76,42.83,6.29,77.42c-0.07,4.98-4.47,37.71,10.62,63.83
			c23.65,40.95,74.27,73.67,108.37,79.15c70.69,11.37,154.46-0.88,154.46-0.88s84.67-8.67,150.43-36.99
			c31.72-13.66,72.79-57.77,85.71-103.26C710.77,470.54,698.49,439.88,697.21,435.07z M327.22,487.4
			c-19.18,2.38-38.15-23.17-42.36-57.07s7.92-63.32,27.11-65.7c19.18-2.38,38.15,23.17,42.36,57.07S346.4,485.02,327.22,487.4z
			 M570.53,457.18c-19.18,2.38-38.15-23.17-42.36-57.07s7.92-63.32,27.11-65.7c19.18-2.38,38.15,23.17,42.36,57.07
			S589.71,454.79,570.53,457.18z"/>
		<path class="st0" d="M206.79,389.55"/>
		<g>
			<path class="st2" d="M381.22,57.42c18.26,0,41.79,23.18,41.79,23.18c12.66,11.33,16.27,34.48,16.27,34.48s6.43-6.2,7.5-17.35
				s-9.07-43.49,0-63.56c9.07-20.06,31.95-35.95,35.72-34.01c0,0-19.97,25.34-14.7,61.3s24.06,43.5,24.06,43.5
				s-6.45-26.51-0.83-26.95c5.62-0.44,12.22-26.99,9.49-32.08c0,0-2.98-22.4-10.24-26.44c0,0,23.92,3.62,25.65,23.52
				s-4.51,39.51,3.59,54.47s24.44,28.87,31.82,27.17c0,0-15.48-14.67-14.26-34.54s5.03-29.8,10.52-32.13c0,0-9.76,30.48,11.51,39.83
				c0,0,9.32-3.41,8.06-39.36c0,0,3.13-31.26,16.72-38.9c0,0-12.43,28.28-2.94,41.33c0,0,26.62,21.96,28.89,35.08
				c0,0,7.05,0.89,5.12-16.16S599.59,60.4,599.59,60.4s25.99-12.95,35.94,24.52c0,0,3.57,9.83-2.37,31.13
				c0,0,0.75,32.91,18.49,31.35c0,0,19.79,3.1,17.73-30.9s-13.35-41.07-13.35-41.07s20.38,1.05,24.76,12.98
				c0,0,20.04-7.37,38.45,14.66c0,0-41.18-3.49-31.75,31.9c0,0,10.99-13.55,28.55-3.31c17.56,10.24,19.72,29.12,17.41,37.39
				c0,0-7.35-24.43-24.4-18.34c0,0-19.05,4.98,4.24,42.28c0,0,0.53-13.84,25.78-14.36c0,0,19.02,13.18,19.88,25.35
				c0,0-8.73-9.86-18.93-6.16s-9.75,20.05-9.75,20.05s14.44,23.94,11.33,37.2c0,0,9.02-24.53,20.54-23.32c0,0-6.07,6.81-4.01,13.88
				s7.26,46.9-3.69,61.05c-10.95,14.15-17.42,21.21-25.8,19.21c0,0,5.89,14.75,20.34,15.15c14.44,0.4,14.69,2.39,29.47-6.69
				c0,0,9.04,16.42-4.8,25.92c-13.83,9.5-41.81,14.3-55.1-6.63c0,0-3.81,26.39,19.06,46.26c22.86,19.87,46.54-1.21,45.22-8.88
				c0,0,2.9,35.64-28.24,43.91c0,0-21.59,9.24-44.62-26.49c0,0,1.09,19.85-14.55,27.84c0,0,5.38-23.68-8.64-39.02
				c0,0-4.92,13.45-15.56,11.51c-10.64-1.94-12.72-5.85-12.72-5.85s19.55-3.78,9.97-33.56c0,0-14,36.76-40.46,33.99
				c0,0-11.51,1.82-14.58-18.28c0,0,11.36,12.59,21.67-8.51c10.31-21.1,0.99-40.66,0.99-40.66s-1.54-9.83,0.05-12.54
				c1.58-2.72-34.12,18.2-25.27,47.49s-20.88,46.92-20.88,46.92s13.34-26.52,5.69-39.67c-7.65-13.15-19.01-23.84-19.01-23.84
				s4,32.9-11.63,45.25c-14.72,11.63-24.89,11.15-31.23,6.46c-1.52-1.12-8.94-8.02-11.22-20.1c-1.67-8.83,2.24-23.13,2.29-21.31
				c0.45,14.08,7.17,18.31,12.04,21.71c3.05,2.13,12.77,11.33,17.84-19.34s-18.86-50.38-29.49-46.64
				c-10.79,3.79-21.67,5.39-21.96,38.94s11.63,37.43,14.49,41.53c0,0-20.13,2.76-36.15-22.77c0,0,3.14,41.33-22.45,38.5
				c0,0,12.18-12.79,8.43-31.86c-4.26-21.65-37.55-54.25-37.55-54.25c-30.02,61.93-8.33,90.42-8.33,90.42
				c-24.28,8.65-30.54-32.32-30.54-32.32c-9.84,28.55-30.06,30.5-30.06,30.5c1.86-4.66,12.59-11.18,4.74-43.78
				c-7.84-32.6-18.81-31.65-30.16-32.86c-11.19-1.19-30.05,23.51-18.2,52.21c11.85,28.7,20,17.22,21.73,14.72
				c1.73-2.5,3.56-12.03-2.41-17.45c-5.97-5.43-4.72,4.16-4.72,4.16s-6.87-5.19-2.24-13.36c4.64-8.17,16.64-2.11,22.35,9.41
				c5.5,11.09-0.89,30.25-5.52,35.71c-5.11,6.03-14.91,8.84-31.87,0.9c-17.99-8.42-21.52-41.38-21.52-41.38s-8.65,13.02-13.14,27.59
				s14.48,37.32,14.48,37.32s-32.92-10.33-30.91-40.88s-37.46-42.7-35.31-40.42c2.15,2.28,2.87,12.2,2.87,12.2
				s-4.66,21.19,10.13,39.36s23.02,3.3,23.02,3.3c1.55,20.28-10.07,21.15-10.07,21.15c-25.14,8.79-47.06-23.78-47.06-23.78
				c-2.61,31.2,17.28,30.38,17.28,30.38s-1.14,4.29-11.06,8.63c-9.92,4.34-17.75-7.62-17.75-7.62c-10.2,18.16,0.38,39.98,0.38,39.98
				c-17.03-4.18-20.45-23.75-20.45-23.75c-14.37,40.09-37.48,36.07-37.48,36.07c-32.18-0.88-37.39-36.25-37.39-36.25
				c0.44,7.78,28.25,22.85,46.03-1.76s8.13-49.44,8.13-49.44c-8.22,23.44-36.55,25.2-52.16,19.14
				c-15.61-6.06-10.51-24.13-10.51-24.13c16.44,5.44,16.23,3.45,30.21-0.27s16.38-19.44,16.38-19.44
				c-7.72,3.88-15.61-1.5-29.46-12.77c-13.85-11.26-17.76-51.24-17.35-58.6c0.41-7.36-7.04-12.59-7.04-12.59
				c10.94-3.84,25.25,17.97,25.25,17.97c-6.01-12.2,2.65-38.83,2.65-38.83s-3.25-16.02-14.01-17.28s-17.04,10.35-17.04,10.35
				c-1.91-12.05,13.64-29.26,13.64-29.26c24.7-5.31,28.34,8.04,28.34,8.04c14.26-41.69-5.41-42.15-5.41-42.15
				c-17.97-2-19.62,23.47-19.62,23.47c-4.11-7.52-6.26-26.4,8.53-40.42c14.79-14.01,28.54-3.35,28.54-3.35
				c1.2-36.64-38.11-23.75-38.11-23.75c12.96-25.68,34.13-23.13,34.13-23.13c1.58-12.63,21.18-18.34,21.18-18.34
				s-9.4,9.48-3.74,43.06s24.23,26,24.23,26c17.63-2.57,10.93-34.79,10.93-34.79c-10.59-19.36-9.32-29.76-9.32-29.76
				c1.24-38.77,29.47-32.15,29.47-32.15s-12.57,5.39-10.61,22.44s8.62,14.56,8.62,14.56c-0.74-13.3,20.22-40.81,20.22-40.81
				c6.29-14.9-12.18-39.57-12.18-39.57c14.95,4.31,25.05,34.02,25.05,34.02c6.88,35.29,16.72,36.47,16.72,36.47
				c18.6-14,2.23-41.44,2.23-41.44c5.87,1,11.82,9.79,17.49,28.86s-6.1,36.92-6.1,36.92c7.56-0.05,20.35-17.35,24.85-33.79
				c4.51-16.44-5.99-34.09-8.79-53.87s19.68-28.81,19.68-28.81c-6.16,5.61-4.01,28.1-4.01,28.1c-1.51,5.58,10.9,29.91,16.47,29.05
				s5.27,26.43,5.27,26.43s16.59-11.67,13.62-47.9s-28.13-56.3-28.13-56.3c3.24-2.76,29.1,7.44,42.45,24.89
				c13.36,17.45,10.77,51.27,14.33,61.89s27.11,25.65,27.11,25.65l6.35-20.6c3.44-8.36,8.34-19.14,0.67-34.57L381.22,57.42"/>
			<g class="st3">
				<path class="st4" d="M388.59,163.04c-4.45-9.18-2.81-20.16,0.46-29.83c3.26-9.67,8.05-18.9,9.79-28.95
					c2.98-17.24-4.01-35.84-17.61-46.84c15.19,5.34,30.89,11.33,41.79,23.18c12.87,13.99,16.91,33.8,19.33,52.66
					c0.4,3.15,0.79,6.35,2.07,9.26c3.17,7.19,11.21,11.06,18.98,12.23"/>
			</g>
			<g>
				<path class="st2" d="M647.63,213.61c0.92-5.86,10.03-6.57,14.17-2.32c4.14,4.25,4.75,10.68,5.69,16.54
					c3.81,23.72,17.84,46.43,39.32,57.17c-13.58,12.58-36.56,13.3-50.89,1.58c-3.75-3.07-6.89-6.8-10.14-10.4
					c-5.94-6.58-12.51-12.89-20.63-16.43c-8.12-3.54-18.11-3.88-25.44,1.1"/>
			</g>
			<g>
				<path class="st2" d="M526.53,193.11c-3.61,0.33-7.06,1.97-9.67,4.49c-5.58,5.39-6.77,13.98-5.83,21.68s3.67,15.1,4.64,22.8
					c2.52,19.84-7.89,40.72-25.24,50.67c10.42-2.14,19.44-8.4,28.13-14.52c13.12-9.24,27.28-20.03,30.28-35.78
					c0.81-4.28,0.73-8.69,1.62-12.95c1.87-8.95,8.25-16.83,16.61-20.51"/>
			</g>
			<g>
				<path class="st2" d="M286.98,243.14c-2.29,7.03-8.97,11.77-12.1,18.46c-7.07,15.08,5.94,32.71,2.85,49.08
					c-0.9,4.73-3.11,9.1-5.38,13.35c-3.28,6.13-6.79,12.25-11.71,17.16c-4.92,4.91-11.45,8.56-18.4,8.66
					c11.8-10.35,12.18-28.61,8.81-43.94c-3.37-15.33-9.58-30.58-7.7-46.16c0.99-8.22,4.21-16,7.79-23.47"/>
			</g>
			<g>
				<path class="st2" d="M195.66,271.75c-3.26,0.21-5.7,3.33-6.37,6.53c-0.67,3.2-0.02,6.5,0.39,9.74
					c1.81,14.56-1.64,29.72-9.58,42.07c-7.23,11.24-18.44,21.35-18.68,34.71c-0.13,7.38,3.54,14.73,9.52,19.06
					c-0.51-10.03,3.58-20.2,10.89-27.08c6.22-5.86,14.32-9.2,21.69-13.53c7.36-4.34,14.51-10.39,16.47-18.71
					c1.74-7.39-0.93-15-2.11-22.5c-1.35-8.61-0.7-17.52,1.88-25.84"/>
			</g>
			<g>
				<path class="st2" d="M367.33,229.29c-3.87,3.33-6.65,7.9-7.85,12.86c-1.48,6.12-0.56,12.53-0.99,18.81
					c-1.08,15.8-11.44,30.61-25.91,37.05c18.96,2.24,38.63-2.22,54.77-12.41c8.07-5.1,15.52-11.93,18.86-20.88
					c3.36-9,2.29-19.35,6.5-27.99c4.14-8.51,13.5-14.21,22.96-14"/>
			</g>
		</g>
	</g>
	<g>
		<g>
			<path class="st1" d="M76.09,613.23c0.13-1.56,0.2-3.15,0.2-4.76c0-20.17-10.23-36.52-22.84-36.52s-22.84,16.35-22.84,36.52
				c0,1.62,0.07,3.2,0.2,4.76H76.09z"/>
			<path class="st1" d="M121.77,613.23c0.13-1.56,0.2-3.15,0.2-4.76c0-20.17-10.23-36.52-22.84-36.52s-22.84,16.35-22.84,36.52
				c0,1.62,0.07,3.2,0.2,4.76H121.77z"/>
			<path class="st1" d="M167.45,613.23c0.13-1.56,0.2-3.15,0.2-4.76c0-20.17-10.23-36.52-22.84-36.52s-22.84,16.35-22.84,36.52
				c0,1.62,0.07,3.2,0.2,4.76H167.45z"/>
		</g>
		<g>
			<path class="st1" d="M752.42,613.23c0.13-1.56,0.2-3.15,0.2-4.76c0-20.17-10.23-36.52-22.84-36.52s-22.84,16.35-22.84,36.52
				c0,1.62,0.07,3.2,0.2,4.76H752.42z"/>
			<path class="st1" d="M798.09,613.23c0.13-1.56,0.2-3.15,0.2-4.76c0-20.17-10.23-36.52-22.84-36.52s-22.84,16.35-22.84,36.52
				c0,1.62,0.07,3.2,0.2,4.76H798.09z"/>
			<path class="st1" d="M843.77,613.23c0.13-1.56,0.2-3.15,0.2-4.76c0-20.17-10.23-36.52-22.84-36.52s-22.84,16.35-22.84,36.52
				c0,1.62,0.07,3.2,0.2,4.76H843.77z"/>
		</g>
	</g>
	<g>
		<path class="st2" d="M53.62,745.56h46.96v24.97H0v-99.49h100.58v24.97H53.62v12.32h32.83v24.97H53.62V745.56z"/>
		<path class="st2" d="M217.76,770.53H116.94v-99.49h53.62v74.52h47.2V770.53z"/>
		<path class="st2" d="M310.51,671.04h53.62v33.25c7.16-0.09,13.63-2.67,19.39-7.76c5.76-5.09,8.65-13.17,8.65-24.25v-1.24h54.79
			v1.37c0,22.3-7.98,38.36-23.95,48.18c18.15,11.87,27.22,28.12,27.22,48.76v1.17h-58.06v-1.04c0-10.95-2.44-19.5-7.3-25.65
			c-4.87-6.15-11.78-9.36-20.74-9.62v36.31h-53.62V671.04z"/>
		<path class="st2" d="M514.6,753.58l-6.89,16.95h-54.32l43.34-99.49h76.52l41.12,99.49h-53.74l-7.01-16.95H514.6z M524.18,730.24
			h19.86l-9.81-24.32L524.18,730.24z"/>
		<path class="st2" d="M625.82,671.04h53.62v33.25c7.16-0.09,13.63-2.67,19.39-7.76c5.76-5.09,8.64-13.17,8.64-24.25v-1.24h54.79
			v1.37c0,22.3-7.98,38.36-23.95,48.18c18.15,11.87,27.22,28.12,27.22,48.76v1.17h-58.06v-1.04c0-10.95-2.43-19.5-7.3-25.65
			c-4.87-6.15-11.78-9.36-20.74-9.62v36.31h-53.62V671.04z"/>
		<path class="st2" d="M833.76,745.56h46.96v24.97H780.14v-99.49h100.58v24.97h-46.96v12.32h32.83v24.97h-32.83V745.56z"/>
	</g>
	<rect x="1.08" y="613.23" class="st0" width="882.58" height="33.78"/>
	<rect x="1.08" y="799.04" class="st0" width="882.58" height="33.78"/>
</g>
</svg>
