<!-- Generator: Adobe Illustrator 25.0.0, SVG Export Plug-In  -->
<svg version="1.1" xmlns="http://www.w3.org/2000/svg" xmlns:xlink="http://www.w3.org/1999/xlink" x="0px" y="0px" width="354.9px"
	 height="324.25px" viewBox="0 0 354.9 324.25" style="overflow:visible;enable-background:new 0 0 354.9 324.25;"
	 xml:space="preserve">
<style type="text/css">
	.st0{fill:#212121;}
	.st1{fill:#0D7377;}
	.st2{display:none;}
	.st3{display:inline;fill:#0D7377;}
</style>
<defs>
</defs>
<g>
	<line class="st0" x1="159.17" y1="262.1" x2="189.6" y2="265.54"/>
	<path class="st0" d="M306.97,233.42c-2.61-17.5-2.13-39.66-2.13-39.66s-35.79-54.73-128.86-58.35
		c-92.97,5.67-127.54,61.17-127.54,61.17s0.98,22.15-1.25,39.69c-0.32,2.53-4.44,18.9,1.73,33.04c9.67,22.16,33.5,41.69,50.51,46.43
		c35.26,9.84,78.52,8.42,78.52,8.42s43.51,0.46,78.55-10.16c16.9-5.12,40.3-25.17,49.47-47.54
		C311.82,252.22,307.35,235.94,306.97,233.42z M116,238.76c-9.88,0.11-18.05-13.96-18.24-31.43c-0.19-17.47,7.66-31.71,17.54-31.82
		c9.88-0.11,18.05,13.96,18.24,31.43C133.73,224.4,125.88,238.65,116,238.76z M241.34,237.38c-9.88,0.11-18.05-13.96-18.24-31.43
		c-0.19-17.47,7.66-31.71,17.54-31.82c9.88-0.11,18.05,13.96,18.24,31.43S251.23,237.27,241.34,237.38z"/>
	<path class="st0" d="M60.44,182.13"/>
	<g>
		<path class="st1" d="M168.13,23.41c9.28,1.05,19.9,14.18,19.9,14.18c5.78,6.48,6.29,18.45,6.29,18.45s3.62-2.78,4.81-8.39
			c1.19-5.6-2.11-22.62,3.65-32.29s18.3-16.43,20.1-15.23c0,0-11.6,11.73-10.99,30.3c0.61,18.57,9.72,23.48,9.72,23.48
			s-1.75-13.84,1.13-13.74c2.88,0.1,7.76-13.01,6.66-15.75c0,0-0.23-11.55-3.68-14.02c0,0,11.95,3.21,11.68,13.42
			s-4.56,19.81-1.31,27.88c3.25,8.07,10.76,16.07,14.6,15.63c0,0-7.02-8.34-5.26-18.37s4.27-14.85,7.19-15.72
			c0,0-6.71,14.92,3.56,20.9c0,0,4.93-1.2,6.36-19.54c0,0,3.39-15.7,10.73-18.8c0,0-7.94,13.65-3.87,20.83
			c0,0,12.26,12.69,12.66,19.48c0,0,3.53,0.86,3.53-7.92s-6.71-10.74-6.71-10.74s13.95-5.08,16.85,14.52c0,0,1.25,5.2-2.99,15.68
			c0,0-1.51,16.76,7.59,16.99c0,0,9.88,2.71,10.78-14.68c0.9-17.39-4.42-21.63-4.42-21.63s10.29,1.7,11.83,8.02
			c0,0,10.6-2.59,18.69,9.65c0,0-20.72-4.14-17.96,14.38c0,0,6.36-6.25,14.69-0.04c8.33,6.21,8.35,15.93,6.7,19.99
			c0,0-2.33-12.83-11.34-10.72c0,0-9.96,1.44-0.28,21.73c0,0,1.06-7,13.92-5.81c0,0,8.91,7.79,8.64,14.02c0,0-3.87-5.51-9.26-4.22
			c-5.39,1.3-6.1,9.63-6.1,9.63s5.96,12.99,3.62,19.55c0,0,5.99-11.95,11.77-10.67c0,0-3.48,3.11-2.84,6.82s0.99,24.24-5.38,30.81
			c-6.37,6.56-10.07,9.78-14.21,8.28c0,0,2.15,7.83,9.46,8.87c7.31,1.03,7.33,2.06,15.36-1.71c0,0,3.65,8.86-3.93,12.89
			c-7.57,4.03-22.06,4.86-27.61-6.53c0,0-3.45,13.19,7.03,24.6s23.71,2.06,23.48-1.92c0,0-0.57,18.27-16.87,20.68
			c0,0-11.5,3.46-21.15-16.02c0,0-0.59,10.15-8.99,13.31c0,0,4.1-11.72-2.15-20.32c0,0-3.27,6.55-8.57,4.95
			c-5.29-1.6-6.12-3.7-6.12-3.7s10.15-0.8,6.99-16.48c0,0-9.23,17.87-22.51,14.95c0,0-5.95,0.27-6.36-10.12c0,0,5.05,7.05,11.5-3.08
			s2.84-20.6,2.84-20.6s-0.22-5.08,0.74-6.37c0.96-1.29-18.38,7.29-15.56,22.67c2.81,15.39-13.3,22.64-13.3,22.64
			s8.3-12.71,5.17-19.83c-3.13-7.12-8.29-13.2-8.29-13.2s0.14,16.95-8.51,22.32c-8.15,5.07-13.29,4.24-16.24,1.49
			c-0.71-0.66-4.08-4.59-4.55-10.85c-0.34-4.58,2.46-11.62,2.39-10.7c-0.58,7.18,2.59,9.72,4.87,11.72
			c1.42,1.26,5.84,6.49,10.17-8.8s-6.69-26.68-12.31-25.39c-5.7,1.31-11.32,1.49-13.39,18.52c-2.07,17.03,3.76,19.68,4.98,21.93
			c0,0-10.39,0.25-17.06-13.64c0,0-0.78,21.18-13.62,18.27c0,0,6.92-5.8,6.11-15.7c-0.92-11.25-15.96-29.72-15.96-29.72
			c-18.81,29.74-9.42,45.46-9.42,45.46c-12.83,3-13.66-18.17-13.66-18.17c-6.64,13.94-17.02,13.77-17.02,13.77
			c1.21-2.26,7.04-4.95,4.92-21.97c-2.11-17.01-7.74-17.16-13.44-18.42c-5.62-1.25-16.62,10.22-12.25,25.48
			c4.37,15.26,9.17,9.9,10.19,8.73s2.5-5.91-0.22-9c-2.72-3.1-2.64,1.84-2.64,1.84s-3.19-3.03-0.37-6.92s8.57-0.12,10.81,6.06
			c2.16,5.95-2.19,15.32-4.85,17.82c-2.94,2.77-8.08,3.64-16.24-1.37c-8.66-5.31-8.56-22.26-8.56-22.26s-5.14,6.12-8.26,13.26
			c-3.12,7.14,5.21,19.79,5.21,19.79s-16.13-7.14-13.36-22.54s-16.58-23.84-15.62-22.56c0.96,1.28,0.76,6.36,0.76,6.36
			s-3.58,10.5,2.89,20.58c6.47,10.08,11.5,3,11.5,3c-0.38,10.39-6.33,10.17-6.33,10.17c-13.28,3.02-22.54-14.78-22.54-14.78
			c-3.12,15.7,7.03,16.43,7.03,16.43s-0.83,2.11-6.12,3.75s-8.58-4.89-8.58-4.89c-6.23,8.64-2.1,20.33-2.1,20.33
			c-8.41-3.1-9.02-13.24-9.02-13.24c-9.6,19.54-21.11,16.17-21.11,16.17c-16.3-2.3-16.91-20.56-16.91-20.56
			c-0.22,3.98,13.04,13.23,23.49,1.75s6.97-24.65,6.97-24.65c-5.52,11.44-20.01,10.7-27.6,6.73c-7.58-3.97-3.96-12.86-3.96-12.86
			c8.04,3.71,8.05,2.68,15.36,1.6s9.44-8.93,9.44-8.93c-4.14,1.53-7.84-1.66-14.23-8.18c-6.39-6.52-6.08-27.05-5.45-30.77
			c0.63-3.72-2.85-6.8-2.85-6.8c5.78-1.32,11.8,10.58,11.8,10.58c-2.35-6.54,3.58-19.58,3.58-19.58s-0.73-8.33-6.13-9.58
			c-5.4-1.26-9.25,4.28-9.25,4.28c-0.28-6.23,8.61-14.08,8.61-14.08c12.85-1.28,13.94,5.71,13.94,5.71
			c9.64-20.36-0.33-21.72-0.33-21.72c-9.02-2.05-11.32,10.8-11.32,10.8c-1.66-4.06-1.67-13.77,6.65-20.04
			c8.32-6.27,14.69-0.06,14.69-0.06c2.72-18.54-18-14.26-18-14.26c8.06-12.3,18.67-9.79,18.67-9.79c1.53-6.32,11.82-8.1,11.82-8.1
			s-5.32,4.28-4.37,21.66c0.95,17.39,10.81,14.6,10.81,14.6c9.1-0.3,7.55-17.05,7.55-17.05c-4.27-10.44-3.03-15.66-3.03-15.66
			c2.86-19.63,16.82-14.64,16.82-14.64s-6.7,2.02-6.68,10.79c0.01,8.77,3.55,7.89,3.55,7.89c0.39-6.8,12.62-19.57,12.62-19.57
			c4.05-7.21-3.92-20.8-3.92-20.8c7.35,3.05,10.77,18.72,10.77,18.72c1.47,18.33,6.4,19.49,6.4,19.49
			c10.26-6.05,3.51-20.92,3.51-20.92c2.93,0.85,5.44,5.65,7.23,15.66s-5.22,18.41-5.22,18.41c3.84,0.41,11.33-7.65,14.57-15.74
			c3.23-8.09-1.08-17.66-1.37-27.87c-0.29-10.21,11.65-13.51,11.65-13.51c-3.45,2.5-3.65,14.05-3.65,14.05
			c-1.09,2.75,3.82,15.82,6.7,15.71c2.88-0.12,1.16,13.73,1.16,13.73s9.1-4.98,9.67-23.55S131.58,0.44,131.58,0.44
			c1.8-1.21,14.35,5.45,20.14,15.08c5.78,9.63,2.53,26.67,3.73,32.26c1.2,5.6,12.3,14.59,12.3,14.59l4.41-10.1
			c2.23-4.05,5.34-9.24,2.33-17.52L168.13,23.41"/>
		<g class="st2">
			<path class="st3" d="M165.8,77.49c-1.73-4.92-0.27-10.4,1.94-15.13s5.17-9.14,6.63-14.15c2.5-8.59,0.02-18.44-6.26-24.81
				c7.41,3.59,15.04,7.53,19.9,14.18c5.73,7.85,6.65,18.14,6.8,27.86c0.02,1.62,0.04,3.27,0.52,4.82c1.2,3.83,5.06,6.26,8.94,7.3"/>
		</g>
		<g>
			<path class="st1" d="M294.5,118.06c0.8-2.93,5.47-2.76,7.33-0.36s1.8,5.7,1.94,8.73c0.58,12.27,6.39,24.61,16.69,31.3
				c-7.62,5.61-19.34,4.65-25.95-2.12c-1.73-1.77-3.11-3.85-4.55-5.86c-2.64-3.68-5.61-7.27-9.54-9.53
				c-3.92-2.27-8.98-3.01-12.99-0.9"/>
		</g>
		<g>
			<path class="st1" d="M234.16,100.69c-1.85-0.04-3.7,0.6-5.17,1.72c-3.15,2.42-4.24,6.71-4.21,10.68c0.04,3.97,1,7.88,1.05,11.85
				c0.14,10.23-6.34,20.24-15.73,24.29c5.41-0.49,10.36-3.15,15.13-5.76c7.19-3.94,15.01-8.61,17.44-16.44
				c0.66-2.13,0.87-4.37,1.57-6.49c1.46-4.44,5.16-8.08,9.62-9.47"/>
		</g>
		<g>
			<path class="st1" d="M109.58,112.35c-1.57,3.44-5.23,5.46-7.21,8.68c-4.46,7.26,1.14,16.96-1.37,25.1
				c-0.73,2.35-2.1,4.44-3.5,6.47c-2.02,2.93-4.15,5.83-6.93,8.05c-2.78,2.21-6.31,3.69-9.85,3.34c6.59-4.58,7.83-13.84,7-21.82
				c-0.83-7.98-3.11-16.08-1.26-23.89c0.98-4.12,3.06-7.89,5.31-11.47"/>
		</g>
		<g>
			<path class="st1" d="M61.54,121.65c-1.67-0.08-3.09,1.36-3.61,2.95c-0.52,1.59-0.38,3.3-0.36,4.97
				c0.08,7.5-2.54,15.01-7.28,20.82c-4.32,5.29-10.6,9.79-11.48,16.56c-0.49,3.74,0.95,7.69,3.74,10.23
				c0.31-5.12,2.98-10.06,7.09-13.13c3.5-2.62,7.81-3.85,11.8-5.63s7.97-4.45,9.44-8.56c1.31-3.65,0.39-7.67,0.22-11.55
				c-0.19-4.45,0.65-8.94,2.44-13.02"/>
		</g>
		<g>
			<path class="st1" d="M151.2,109.93c-2.16,1.47-3.83,3.63-4.73,6.08c-1.1,3.02-1,6.33-1.58,9.5c-1.46,7.96-7.57,14.9-15.29,17.33
				c9.5,2.22,19.75,1.09,28.54-3.16c4.39-2.13,8.57-5.17,10.78-9.52c2.23-4.38,2.27-9.7,4.91-13.85c2.59-4.09,7.67-6.45,12.47-5.79"
				/>
		</g>
	</g>
</g>
</svg>
